<svg width="142" height="159" viewBox="0 0 142 159" fill="none" xmlns="http://www.w3.org/2000/svg">
<rect x="2" y="2" width="138" height="155" fill="#1F1D1E" stroke="#CDF500" stroke-width="4"/>
<rect x="6" y="121" width="130" height="32" fill="#CDF500" stroke="#CDF500" stroke-width="4"/>
<path d="M26.3301 137.645C26.1803 137.645 26.0729 137.684 26.0078 137.762C25.9492 137.833 25.9199 137.918 25.9199 138.016C25.9199 138.146 25.9655 138.237 26.0566 138.289C26.1543 138.341 26.2682 138.367 26.3984 138.367C26.6068 138.367 26.7663 138.315 26.877 138.211C26.9876 138.107 27.043 137.918 27.043 137.645H26.3301ZM31.3984 137.166C31.3984 137.615 31.4473 137.986 31.5449 138.279C31.6426 138.572 31.8281 138.803 32.1016 138.973C32.1081 139.025 32.1113 139.09 32.1113 139.168C32.1113 139.24 32.1113 139.295 32.1113 139.334C32.1113 139.829 32.0332 140.255 31.877 140.613C31.7207 140.971 31.5156 141.268 31.2617 141.502C31.0143 141.73 30.7311 141.899 30.4121 142.01C30.0931 142.12 29.7676 142.176 29.4355 142.176C29.2012 142.176 28.9701 142.146 28.7422 142.088C28.5208 142.036 28.3092 141.954 28.1074 141.844C27.9121 141.733 27.7331 141.593 27.5703 141.424C27.4141 141.248 27.2904 141.043 27.1992 140.809C27.0885 140.809 27.0039 140.838 26.9453 140.896C26.8932 140.955 26.8672 141.033 26.8672 141.131C26.8672 141.222 26.8965 141.32 26.9551 141.424C27.0137 141.528 27.0983 141.635 27.209 141.746C27.0007 141.889 26.7207 141.997 26.3691 142.068C26.0176 142.14 25.6595 142.176 25.2949 142.176C24.7025 142.176 24.1621 142.094 23.6738 141.932C23.1921 141.769 22.7754 141.528 22.4238 141.209C22.0788 140.89 21.8086 140.503 21.6133 140.047C21.4245 139.585 21.3301 139.054 21.3301 138.455C21.3301 137.837 21.431 137.303 21.6328 136.854C21.8411 136.398 22.1211 136.023 22.4727 135.73C22.8242 135.431 23.2311 135.21 23.6934 135.066C24.1621 134.923 24.6569 134.852 25.1777 134.852C25.4121 134.852 25.6204 134.861 25.8027 134.881C25.985 134.894 26.1413 134.91 26.2715 134.93C26.4212 134.956 26.5482 134.982 26.6523 135.008C26.6719 134.943 26.6816 134.887 26.6816 134.842C26.6816 134.757 26.6361 134.686 26.5449 134.627C26.4603 134.568 26.3464 134.526 26.2031 134.5C26.0599 134.467 25.8939 134.445 25.7051 134.432C25.5163 134.419 25.3242 134.412 25.1289 134.412C24.6862 134.412 24.2435 134.461 23.8008 134.559C23.3581 134.656 22.9609 134.806 22.6094 135.008C22.4661 134.767 22.349 134.461 22.2578 134.09C22.1732 133.719 22.1309 133.341 22.1309 132.957C22.1309 132.775 22.1406 132.592 22.1602 132.41C22.1862 132.221 22.235 132.055 22.3066 131.912C22.4759 131.834 22.6908 131.749 22.9512 131.658C23.2181 131.561 23.5241 131.473 23.8691 131.395C24.2207 131.31 24.6048 131.238 25.0215 131.18C25.4447 131.121 25.8971 131.092 26.3789 131.092C27.2188 131.092 27.9512 131.186 28.5762 131.375C29.2077 131.564 29.7318 131.837 30.1484 132.195C30.5651 132.547 30.8776 132.983 31.0859 133.504C31.2943 134.018 31.3984 134.601 31.3984 135.252V137.166ZM37.8047 142.303C36.9453 142.303 36.1738 142.166 35.4902 141.893C34.8066 141.613 34.224 141.222 33.7422 140.721C33.2604 140.219 32.8893 139.614 32.6289 138.904C32.375 138.195 32.248 137.407 32.248 136.541C32.248 135.61 32.4043 134.796 32.7168 134.1C33.0293 133.403 33.4427 132.827 33.957 132.371C34.4714 131.909 35.0573 131.564 35.7148 131.336C36.3789 131.108 37.0625 130.994 37.7656 130.994C38.4232 130.994 39.0384 131.079 39.6113 131.248C40.1842 131.411 40.6823 131.652 41.1055 131.971C41.5286 132.29 41.8607 132.68 42.1016 133.143C42.349 133.598 42.4727 134.122 42.4727 134.715C42.4727 135.112 42.4076 135.477 42.2773 135.809C42.1471 136.134 41.9648 136.417 41.7305 136.658C41.4961 136.893 41.2129 137.075 40.8809 137.205C40.5553 137.335 40.194 137.4 39.7969 137.4C39.4648 137.4 39.1589 137.355 38.8789 137.264C38.6055 137.173 38.3646 137.046 38.1562 136.883C37.9544 136.714 37.7884 136.515 37.6582 136.287C37.528 136.053 37.4434 135.796 37.4043 135.516C37.2806 135.516 37.1764 135.538 37.0918 135.584C37.0137 135.623 36.9746 135.704 36.9746 135.828C36.9746 136.036 37.0332 136.258 37.1504 136.492C37.2741 136.727 37.4499 136.945 37.6777 137.146C37.9056 137.342 38.1888 137.508 38.5273 137.645C38.8659 137.775 39.2565 137.84 39.6992 137.84C40.1745 137.84 40.5716 137.788 40.8906 137.684C41.2161 137.579 41.4831 137.459 41.6914 137.322C41.8281 137.531 41.9421 137.785 42.0332 138.084C42.1309 138.383 42.1797 138.738 42.1797 139.148C42.1797 139.526 42.0885 139.904 41.9062 140.281C41.7305 140.652 41.4603 140.988 41.0957 141.287C40.7376 141.587 40.2852 141.831 39.7383 142.02C39.1914 142.208 38.5469 142.303 37.8047 142.303ZM48.293 142.303C47.4336 142.303 46.6621 142.166 45.9785 141.893C45.2949 141.613 44.7122 141.222 44.2305 140.721C43.7487 140.219 43.3776 139.614 43.1172 138.904C42.8633 138.195 42.7363 137.407 42.7363 136.541C42.7363 135.61 42.8926 134.796 43.2051 134.1C43.5176 133.403 43.931 132.827 44.4453 132.371C44.9596 131.909 45.5456 131.564 46.2031 131.336C46.8672 131.108 47.5508 130.994 48.2539 130.994C48.9115 130.994 49.5267 131.079 50.0996 131.248C50.6725 131.411 51.1706 131.652 51.5938 131.971C52.0169 132.29 52.349 132.68 52.5898 133.143C52.8372 133.598 52.9609 134.122 52.9609 134.715C52.9609 135.112 52.8958 135.477 52.7656 135.809C52.6354 136.134 52.4531 136.417 52.2188 136.658C51.9844 136.893 51.7012 137.075 51.3691 137.205C51.0436 137.335 50.6823 137.4 50.2852 137.4C49.9531 137.4 49.6471 137.355 49.3672 137.264C49.0938 137.173 48.8529 137.046 48.6445 136.883C48.4427 136.714 48.2767 136.515 48.1465 136.287C48.0163 136.053 47.9316 135.796 47.8926 135.516C47.7689 135.516 47.6647 135.538 47.5801 135.584C47.502 135.623 47.4629 135.704 47.4629 135.828C47.4629 136.036 47.5215 136.258 47.6387 136.492C47.7624 136.727 47.9382 136.945 48.166 137.146C48.3939 137.342 48.6771 137.508 49.0156 137.645C49.3542 137.775 49.7448 137.84 50.1875 137.84C50.6628 137.84 51.0599 137.788 51.3789 137.684C51.7044 137.579 51.9714 137.459 52.1797 137.322C52.3164 137.531 52.4303 137.785 52.5215 138.084C52.6191 138.383 52.668 138.738 52.668 139.148C52.668 139.526 52.5768 139.904 52.3945 140.281C52.2188 140.652 51.9486 140.988 51.584 141.287C51.2259 141.587 50.7734 141.831 50.2266 142.02C49.6797 142.208 49.0352 142.303 48.293 142.303ZM58.9668 135.691C59.1296 135.691 59.25 135.659 59.3281 135.594C59.4128 135.522 59.4551 135.431 59.4551 135.32C59.4551 135.19 59.4062 135.099 59.3086 135.047C59.2174 134.995 59.1068 134.969 58.9766 134.969C58.7943 134.969 58.6478 135.021 58.5371 135.125C58.4329 135.223 58.3678 135.356 58.3418 135.525C58.4069 135.564 58.4915 135.604 58.5957 135.643C58.6999 135.675 58.8236 135.691 58.9668 135.691ZM59.0938 142.303C58.2018 142.303 57.3945 142.176 56.6719 141.922C55.9492 141.661 55.3307 141.29 54.8164 140.809C54.3086 140.32 53.9147 139.728 53.6348 139.031C53.3613 138.335 53.2246 137.55 53.2246 136.678C53.2246 135.76 53.3711 134.949 53.6641 134.246C53.9635 133.543 54.3639 132.954 54.8652 132.479C55.373 132.003 55.9622 131.645 56.6328 131.404C57.3034 131.163 58.0098 131.043 58.752 131.043C59.5397 131.043 60.2493 131.16 60.8809 131.395C61.5124 131.622 62.0495 131.938 62.4922 132.342C62.9414 132.745 63.2865 133.217 63.5273 133.758C63.7682 134.298 63.8887 134.874 63.8887 135.486C63.8887 136.066 63.7845 136.564 63.5762 136.98C63.3743 137.397 63.0911 137.742 62.7266 138.016C62.362 138.283 61.929 138.481 61.4277 138.611C60.9264 138.742 60.3828 138.807 59.7969 138.807C59.3542 138.807 58.9245 138.755 58.5078 138.65C58.0977 138.546 57.7461 138.406 57.4531 138.23C57.4206 138.257 57.3978 138.292 57.3848 138.338C57.3783 138.377 57.375 138.413 57.375 138.445C57.375 138.543 57.4466 138.641 57.5898 138.738C57.7331 138.829 57.9186 138.914 58.1465 138.992C58.3743 139.064 58.6348 139.126 58.9277 139.178C59.2207 139.223 59.5137 139.246 59.8066 139.246C60.2103 139.246 60.5781 139.22 60.9102 139.168C61.2422 139.109 61.5384 139.041 61.7988 138.963C62.0658 138.878 62.2969 138.787 62.4922 138.689C62.6875 138.592 62.8503 138.497 62.9805 138.406C63.0651 138.478 63.1367 138.585 63.1953 138.729C63.2604 138.865 63.3158 139.018 63.3613 139.188C63.4069 139.357 63.4395 139.533 63.459 139.715C63.485 139.891 63.498 140.053 63.498 140.203C63.498 140.353 63.4883 140.496 63.4688 140.633C63.4557 140.763 63.4362 140.877 63.4102 140.975C63.2018 141.15 62.974 141.32 62.7266 141.482C62.4792 141.639 62.1862 141.779 61.8477 141.902C61.5091 142.02 61.1152 142.114 60.666 142.186C60.2233 142.264 59.6992 142.303 59.0938 142.303ZM64.4453 128.709C64.5104 128.67 64.6146 128.615 64.7578 128.543C64.901 128.471 65.0703 128.403 65.2656 128.338C65.4674 128.266 65.6953 128.208 65.9492 128.162C66.2031 128.11 66.4733 128.084 66.7598 128.084C67.2285 128.084 67.6289 128.136 67.9609 128.24C68.2995 128.344 68.5762 128.491 68.791 128.68C69.0059 128.862 69.1621 129.083 69.2598 129.344C69.3639 129.604 69.416 129.894 69.416 130.213V137.078C69.416 137.527 69.4648 137.915 69.5625 138.24C69.6602 138.559 69.8457 138.803 70.1191 138.973C70.1257 139.025 70.1289 139.09 70.1289 139.168C70.1289 139.24 70.1289 139.295 70.1289 139.334C70.1289 140.278 69.888 140.988 69.4062 141.463C68.931 141.938 68.2669 142.176 67.4141 142.176C67.0299 142.176 66.6589 142.12 66.3008 142.01C65.9427 141.899 65.627 141.714 65.3535 141.453C65.0801 141.193 64.8587 140.851 64.6895 140.428C64.5267 140.005 64.4453 139.48 64.4453 138.855V128.709ZM75.998 135.691C76.1608 135.691 76.2812 135.659 76.3594 135.594C76.444 135.522 76.4863 135.431 76.4863 135.32C76.4863 135.19 76.4375 135.099 76.3398 135.047C76.2487 134.995 76.138 134.969 76.0078 134.969C75.8255 134.969 75.679 135.021 75.5684 135.125C75.4642 135.223 75.3991 135.356 75.373 135.525C75.4382 135.564 75.5228 135.604 75.627 135.643C75.7311 135.675 75.8548 135.691 75.998 135.691ZM76.125 142.303C75.2331 142.303 74.4258 142.176 73.7031 141.922C72.9805 141.661 72.362 141.29 71.8477 140.809C71.3398 140.32 70.946 139.728 70.666 139.031C70.3926 138.335 70.2559 137.55 70.2559 136.678C70.2559 135.76 70.4023 134.949 70.6953 134.246C70.9948 133.543 71.3952 132.954 71.8965 132.479C72.4043 132.003 72.9935 131.645 73.6641 131.404C74.3346 131.163 75.041 131.043 75.7832 131.043C76.571 131.043 77.2806 131.16 77.9121 131.395C78.5436 131.622 79.0807 131.938 79.5234 132.342C79.9727 132.745 80.3177 133.217 80.5586 133.758C80.7995 134.298 80.9199 134.874 80.9199 135.486C80.9199 136.066 80.8158 136.564 80.6074 136.98C80.4056 137.397 80.1224 137.742 79.7578 138.016C79.3932 138.283 78.9603 138.481 78.459 138.611C77.9577 138.742 77.4141 138.807 76.8281 138.807C76.3854 138.807 75.9557 138.755 75.5391 138.65C75.1289 138.546 74.7773 138.406 74.4844 138.23C74.4518 138.257 74.429 138.292 74.416 138.338C74.4095 138.377 74.4062 138.413 74.4062 138.445C74.4062 138.543 74.4779 138.641 74.6211 138.738C74.7643 138.829 74.9499 138.914 75.1777 138.992C75.4056 139.064 75.666 139.126 75.959 139.178C76.252 139.223 76.5449 139.246 76.8379 139.246C77.2415 139.246 77.6094 139.22 77.9414 139.168C78.2734 139.109 78.5697 139.041 78.8301 138.963C79.097 138.878 79.3281 138.787 79.5234 138.689C79.7188 138.592 79.8815 138.497 80.0117 138.406C80.0964 138.478 80.168 138.585 80.2266 138.729C80.2917 138.865 80.347 139.018 80.3926 139.188C80.4382 139.357 80.4707 139.533 80.4902 139.715C80.5163 139.891 80.5293 140.053 80.5293 140.203C80.5293 140.353 80.5195 140.496 80.5 140.633C80.487 140.763 80.4674 140.877 80.4414 140.975C80.2331 141.15 80.0052 141.32 79.7578 141.482C79.5104 141.639 79.2174 141.779 78.8789 141.902C78.5404 142.02 78.1465 142.114 77.6973 142.186C77.2546 142.264 76.7305 142.303 76.125 142.303ZM83.1562 131.326C83.5599 131.326 83.8952 131.391 84.1621 131.521C84.4355 131.652 84.6504 131.834 84.8066 132.068C84.722 132.16 84.6406 132.27 84.5625 132.4C84.4909 132.531 84.4258 132.661 84.3672 132.791C84.3151 132.915 84.2728 133.035 84.2402 133.152C84.2077 133.263 84.1914 133.351 84.1914 133.416C84.1914 133.494 84.2207 133.566 84.2793 133.631C84.3379 133.689 84.429 133.719 84.5527 133.719C84.6764 133.237 84.849 132.833 85.0703 132.508C85.2982 132.182 85.5553 131.922 85.8418 131.727C86.1348 131.531 86.4473 131.395 86.7793 131.316C87.1178 131.232 87.4596 131.189 87.8047 131.189C88.0846 131.189 88.3418 131.209 88.5762 131.248C88.8105 131.281 89.0221 131.326 89.2109 131.385C89.3997 131.443 89.5658 131.512 89.709 131.59C89.8522 131.661 89.9727 131.733 90.0703 131.805C90.1745 132.078 90.2493 132.368 90.2949 132.674C90.3405 132.98 90.3633 133.279 90.3633 133.572C90.3633 134.1 90.3145 134.539 90.2168 134.891C90.1257 135.242 90.0247 135.532 89.9141 135.76C89.8099 135.812 89.6797 135.864 89.5234 135.916C89.3672 135.968 89.1947 136.014 89.0059 136.053C88.8236 136.092 88.6283 136.124 88.4199 136.15C88.2116 136.17 88.0065 136.18 87.8047 136.18C87.5898 136.18 87.3978 136.173 87.2285 136.16C87.0658 136.147 86.916 136.131 86.7793 136.111C86.6426 136.085 86.5156 136.059 86.3984 136.033C86.2878 136.001 86.1738 135.971 86.0566 135.945C86.0046 135.997 85.9785 136.072 85.9785 136.17C85.9785 136.261 86.0371 136.333 86.1543 136.385C86.278 136.437 86.4961 136.492 86.8086 136.551V141.453C86.5872 141.596 86.3626 141.714 86.1348 141.805C85.9069 141.889 85.6823 141.954 85.4609 142C85.2461 142.052 85.0378 142.085 84.8359 142.098C84.6406 142.117 84.4583 142.127 84.2891 142.127C83.9245 142.127 83.5827 142.091 83.2637 142.02C82.9447 141.954 82.6647 141.854 82.4238 141.717C82.1895 141.574 82.0039 141.395 81.8672 141.18C81.7305 140.965 81.6621 140.708 81.6621 140.408V135.379C81.4668 135.105 81.3203 134.796 81.2227 134.451C81.1315 134.106 81.0859 133.745 81.0859 133.367C81.0859 133.055 81.1315 132.71 81.2227 132.332C81.3203 131.954 81.4668 131.619 81.6621 131.326H83.1562ZM95.0215 137.645C94.8717 137.645 94.7643 137.684 94.6992 137.762C94.6406 137.833 94.6113 137.918 94.6113 138.016C94.6113 138.146 94.6569 138.237 94.748 138.289C94.8457 138.341 94.9596 138.367 95.0898 138.367C95.2982 138.367 95.4577 138.315 95.5684 138.211C95.679 138.107 95.7344 137.918 95.7344 137.645H95.0215ZM100.09 137.166C100.09 137.615 100.139 137.986 100.236 138.279C100.334 138.572 100.52 138.803 100.793 138.973C100.799 139.025 100.803 139.09 100.803 139.168C100.803 139.24 100.803 139.295 100.803 139.334C100.803 139.829 100.725 140.255 100.568 140.613C100.412 140.971 100.207 141.268 99.9531 141.502C99.7057 141.73 99.4225 141.899 99.1035 142.01C98.7845 142.12 98.459 142.176 98.127 142.176C97.8926 142.176 97.6615 142.146 97.4336 142.088C97.2122 142.036 97.0007 141.954 96.7988 141.844C96.6035 141.733 96.4245 141.593 96.2617 141.424C96.1055 141.248 95.9818 141.043 95.8906 140.809C95.7799 140.809 95.6953 140.838 95.6367 140.896C95.5846 140.955 95.5586 141.033 95.5586 141.131C95.5586 141.222 95.5879 141.32 95.6465 141.424C95.7051 141.528 95.7897 141.635 95.9004 141.746C95.6921 141.889 95.4121 141.997 95.0605 142.068C94.709 142.14 94.3509 142.176 93.9863 142.176C93.3939 142.176 92.8535 142.094 92.3652 141.932C91.8835 141.769 91.4668 141.528 91.1152 141.209C90.7702 140.89 90.5 140.503 90.3047 140.047C90.1159 139.585 90.0215 139.054 90.0215 138.455C90.0215 137.837 90.1224 137.303 90.3242 136.854C90.5326 136.398 90.8125 136.023 91.1641 135.73C91.5156 135.431 91.9225 135.21 92.3848 135.066C92.8535 134.923 93.3483 134.852 93.8691 134.852C94.1035 134.852 94.3118 134.861 94.4941 134.881C94.6764 134.894 94.8327 134.91 94.9629 134.93C95.1126 134.956 95.2396 134.982 95.3438 135.008C95.3633 134.943 95.373 134.887 95.373 134.842C95.373 134.757 95.3275 134.686 95.2363 134.627C95.1517 134.568 95.0378 134.526 94.8945 134.5C94.7513 134.467 94.5853 134.445 94.3965 134.432C94.2077 134.419 94.0156 134.412 93.8203 134.412C93.3776 134.412 92.9349 134.461 92.4922 134.559C92.0495 134.656 91.6523 134.806 91.3008 135.008C91.1576 134.767 91.0404 134.461 90.9492 134.09C90.8646 133.719 90.8223 133.341 90.8223 132.957C90.8223 132.775 90.832 132.592 90.8516 132.41C90.8776 132.221 90.9264 132.055 90.998 131.912C91.1673 131.834 91.3822 131.749 91.6426 131.658C91.9095 131.561 92.2155 131.473 92.5605 131.395C92.9121 131.31 93.2962 131.238 93.7129 131.18C94.1361 131.121 94.5885 131.092 95.0703 131.092C95.9102 131.092 96.6426 131.186 97.2676 131.375C97.8991 131.564 98.4232 131.837 98.8398 132.195C99.2565 132.547 99.569 132.983 99.7773 133.504C99.9857 134.018 100.09 134.601 100.09 135.252V137.166ZM101.799 135.828H102.404C102.574 135.828 102.697 135.799 102.775 135.74C102.854 135.682 102.893 135.604 102.893 135.506C102.893 135.467 102.886 135.428 102.873 135.389H100.686C100.614 135.154 100.559 134.897 100.52 134.617C100.487 134.331 100.471 134.041 100.471 133.748C100.471 133.559 100.48 133.344 100.5 133.104C100.526 132.856 100.559 132.651 100.598 132.488C100.871 132.319 101.141 132.137 101.408 131.941C101.682 131.746 101.923 131.57 102.131 131.414C102.189 131.277 102.258 131.098 102.336 130.877C102.414 130.656 102.492 130.424 102.57 130.184C102.648 129.943 102.723 129.712 102.795 129.49C102.867 129.262 102.928 129.074 102.98 128.924C103.189 128.872 103.465 128.826 103.811 128.787C104.156 128.748 104.507 128.729 104.865 128.729C105.145 128.729 105.425 128.745 105.705 128.777C105.992 128.81 106.304 128.862 106.643 128.934V131.326H108.332C108.521 131.613 108.661 131.935 108.752 132.293C108.85 132.645 108.898 132.996 108.898 133.348C108.898 133.68 108.85 134.035 108.752 134.412C108.661 134.783 108.521 135.105 108.332 135.379H106.936V136.854C106.936 137.303 107.027 137.625 107.209 137.82C107.391 138.009 107.648 138.104 107.98 138.104H108.4C108.452 138.299 108.498 138.507 108.537 138.729C108.583 138.95 108.605 139.171 108.605 139.393C108.605 140.298 108.322 140.988 107.756 141.463C107.189 141.938 106.382 142.176 105.334 142.176C104.807 142.176 104.325 142.104 103.889 141.961C103.459 141.818 103.088 141.6 102.775 141.307C102.463 141.014 102.222 140.649 102.053 140.213C101.883 139.77 101.799 139.249 101.799 138.65V135.828ZM114.67 135.691C114.833 135.691 114.953 135.659 115.031 135.594C115.116 135.522 115.158 135.431 115.158 135.32C115.158 135.19 115.109 135.099 115.012 135.047C114.921 134.995 114.81 134.969 114.68 134.969C114.497 134.969 114.351 135.021 114.24 135.125C114.136 135.223 114.071 135.356 114.045 135.525C114.11 135.564 114.195 135.604 114.299 135.643C114.403 135.675 114.527 135.691 114.67 135.691ZM114.797 142.303C113.905 142.303 113.098 142.176 112.375 141.922C111.652 141.661 111.034 141.29 110.52 140.809C110.012 140.32 109.618 139.728 109.338 139.031C109.064 138.335 108.928 137.55 108.928 136.678C108.928 135.76 109.074 134.949 109.367 134.246C109.667 133.543 110.067 132.954 110.568 132.479C111.076 132.003 111.665 131.645 112.336 131.404C113.007 131.163 113.713 131.043 114.455 131.043C115.243 131.043 115.952 131.16 116.584 131.395C117.215 131.622 117.753 131.938 118.195 132.342C118.645 132.745 118.99 133.217 119.23 133.758C119.471 134.298 119.592 134.874 119.592 135.486C119.592 136.066 119.488 136.564 119.279 136.98C119.077 137.397 118.794 137.742 118.43 138.016C118.065 138.283 117.632 138.481 117.131 138.611C116.63 138.742 116.086 138.807 115.5 138.807C115.057 138.807 114.628 138.755 114.211 138.65C113.801 138.546 113.449 138.406 113.156 138.23C113.124 138.257 113.101 138.292 113.088 138.338C113.081 138.377 113.078 138.413 113.078 138.445C113.078 138.543 113.15 138.641 113.293 138.738C113.436 138.829 113.622 138.914 113.85 138.992C114.077 139.064 114.338 139.126 114.631 139.178C114.924 139.223 115.217 139.246 115.51 139.246C115.913 139.246 116.281 139.22 116.613 139.168C116.945 139.109 117.242 139.041 117.502 138.963C117.769 138.878 118 138.787 118.195 138.689C118.391 138.592 118.553 138.497 118.684 138.406C118.768 138.478 118.84 138.585 118.898 138.729C118.964 138.865 119.019 139.018 119.064 139.188C119.11 139.357 119.143 139.533 119.162 139.715C119.188 139.891 119.201 140.053 119.201 140.203C119.201 140.353 119.191 140.496 119.172 140.633C119.159 140.763 119.139 140.877 119.113 140.975C118.905 141.15 118.677 141.32 118.43 141.482C118.182 141.639 117.889 141.779 117.551 141.902C117.212 142.02 116.818 142.114 116.369 142.186C115.926 142.264 115.402 142.303 114.797 142.303Z" fill="#1F1D1E"/>
<path d="M28.9766 95.6562C29.6432 95.6562 30.1589 95.7891 30.5234 96.0547C30.9036 96.3464 31.0938 96.776 31.0938 97.3438V98.3594H32.4609C32.6901 98.6927 32.8568 99.0078 32.9609 99.3047C33.0651 99.6016 33.1172 99.9375 33.1172 100.312C33.1172 100.682 33.0625 101.016 32.9531 101.312C32.849 101.604 32.6849 101.906 32.4609 102.219H30.4688C30.4583 102.25 30.4531 102.292 30.4531 102.344C30.4531 102.479 30.5312 102.557 30.6875 102.578H31.0938V103.891C30.6198 104.422 29.9453 104.688 29.0703 104.688C28.3932 104.688 27.8776 104.552 27.5234 104.281C27.1432 104 26.9531 103.573 26.9531 103V102.219H25.5547C25.1224 101.625 24.9062 100.99 24.9062 100.312C24.9062 99.9375 24.9609 99.599 25.0703 99.2969C25.1797 98.9896 25.3411 98.6771 25.5547 98.3594H27.1797C27.4401 98.3594 27.5703 98.2891 27.5703 98.1484C27.5703 98.0911 27.5651 98.0417 27.5547 98H26.9531V96.4531C27.4375 95.9219 28.112 95.6562 28.9766 95.6562ZM34.0703 100.055C33.8984 99.9922 33.763 99.8776 33.6641 99.7109C33.5651 99.5443 33.5156 99.362 33.5156 99.1641C33.5156 99.1328 33.526 99.0208 33.5469 98.8281C33.625 97.7344 33.7422 96.6797 33.8984 95.6641C33.9557 95.2891 34.0443 95.0573 34.1641 94.9688C34.2839 94.875 34.526 94.8281 34.8906 94.8281H40.875C41.1458 95.2812 41.2812 95.875 41.2812 96.6094C41.2812 97.3438 41.125 97.9297 40.8125 98.3672C40.4896 98.1693 40.1797 98.0208 39.8828 97.9219C39.4193 97.776 38.9219 97.7031 38.3906 97.7031H37.5156L37.4688 98.0547H38.1953C39.2734 98.0547 40.1484 98.3333 40.8203 98.8906C41.5547 99.5052 41.9219 100.37 41.9219 101.484C41.9219 102.599 41.5104 103.487 40.6875 104.148C39.8646 104.81 38.737 105.141 37.3047 105.141C36.0286 105.141 35.0286 104.867 34.3047 104.32C33.5807 103.768 33.2188 103.076 33.2188 102.242C33.2188 101.581 33.4375 101.062 33.875 100.688C34.3177 100.312 34.8359 100.125 35.4297 100.125C36.0234 100.125 36.5234 100.294 36.9297 100.633C37.388 101.023 37.6328 101.544 37.6641 102.195C37.9036 102.195 38.0234 102.083 38.0234 101.859C38.0234 101.307 37.7969 100.823 37.3438 100.406C36.8906 99.9844 36.2552 99.7734 35.4375 99.7734C34.9427 99.7734 34.487 99.8672 34.0703 100.055ZM45.5312 98.75C45.5312 98.9948 45.599 99.1172 45.7344 99.1172C45.875 99.1172 45.9453 98.9948 45.9453 98.75C45.9453 98.2344 45.9271 97.8984 45.8906 97.7422C45.8594 97.5859 45.7786 97.5078 45.6484 97.5078C45.5964 97.5078 45.5573 97.5182 45.5312 97.5391V98.75ZM49.5938 102.219C49.5938 102.464 49.6615 102.586 49.7969 102.586C49.9375 102.586 50.0078 102.464 50.0078 102.219C50.0078 101.703 49.9896 101.367 49.9531 101.211C49.9219 101.055 49.8411 100.977 49.7109 100.977C49.6589 100.977 49.6198 100.987 49.5938 101.008V102.219ZM42.25 98.3203C42.25 97.2734 42.5495 96.4193 43.1484 95.7578C43.7526 95.0964 44.5729 94.7656 45.6094 94.7656C46.1719 94.7656 46.6771 94.8802 47.125 95.1094C47.5781 95.3385 47.9479 95.6589 48.2344 96.0703L49.0312 94.9062C49.2604 94.8125 49.5234 94.7656 49.8203 94.7656C50.4453 94.7656 51.0339 94.9818 51.5859 95.4141C52.1068 95.8307 52.4375 96.3151 52.5781 96.8672L51.5859 98.3516C51.1536 98.1484 50.7734 98.0469 50.4453 98.0469C50.2526 98.0469 50.1562 98.125 50.1562 98.2812C50.1562 98.3229 50.1589 98.349 50.1641 98.3594C51.013 98.4583 51.6875 98.8047 52.1875 99.3984C52.6823 99.9922 52.9297 100.753 52.9297 101.68C52.9297 102.711 52.6328 103.536 52.0391 104.156C51.4505 104.771 50.6276 105.078 49.5703 105.078C49.0026 105.078 48.4948 104.966 48.0469 104.742C47.599 104.513 47.2292 104.193 46.9375 103.781L46.1484 104.938C45.9193 105.031 45.6562 105.078 45.3594 105.078C44.7396 105.078 44.1536 104.859 43.6016 104.422C43.0703 104.01 42.737 103.529 42.6016 102.977L43.5938 101.492C44.026 101.695 44.4062 101.797 44.7344 101.797C44.9271 101.797 45.0234 101.719 45.0234 101.562V101.523C45.0182 101.518 45.0156 101.508 45.0156 101.492C44.1406 101.398 43.4661 101.078 42.9922 100.531C42.4974 99.9792 42.25 99.2422 42.25 98.3203ZM60.6562 101.18V101.367C60.6562 101.456 60.6589 101.518 60.6641 101.555C60.7266 101.581 60.7865 101.594 60.8438 101.594C60.9948 101.594 61.0703 101.492 61.0703 101.289C61.0703 100.758 61.1328 99.7578 61.2578 98.2891C61.3255 97.4922 61.3672 97.0234 61.3828 96.8828C61.8724 96.5547 62.4583 96.3906 63.1406 96.3906C63.8281 96.3906 64.3594 96.5729 64.7344 96.9375C65.0677 97.2708 65.2344 97.7031 65.2344 98.2344C65.2344 98.5938 65.1849 98.9661 65.0859 99.3516C64.6016 101.221 64.1198 102.693 63.6406 103.766C63.3854 104.323 62.9974 104.703 62.4766 104.906C62.0911 105.062 61.5417 105.141 60.8281 105.141C60.4479 105.141 60.0703 105.109 59.6953 105.047C59.3255 104.984 59.0417 104.911 58.8438 104.828C58.0885 103.286 57.4661 101.581 56.9766 99.7109C56.8151 99.5495 56.6771 99.3229 56.5625 99.0312C56.4479 98.7396 56.3906 98.4375 56.3906 98.125C56.3906 97.4792 56.5469 96.9245 56.8594 96.4609C56.8594 96.4609 57.5078 96.4609 58.8047 96.4609C59.487 96.4609 59.9948 96.6536 60.3281 97.0391C60.5781 97.3307 60.7396 97.7552 60.8125 98.3125C60.7083 99.2812 60.6562 100.237 60.6562 101.18ZM69.9922 105.242C68.5495 105.242 67.4115 104.841 66.5781 104.039C65.724 103.232 65.2969 102.128 65.2969 100.727C65.2969 99.3203 65.737 98.2057 66.6172 97.3828C67.4297 96.6172 68.4583 96.2344 69.7031 96.2344C70.9479 96.2344 71.9453 96.5781 72.6953 97.2656C73.4505 97.9479 73.8281 98.7891 73.8281 99.7891C73.8281 100.68 73.5182 101.352 72.8984 101.805C72.3255 102.232 71.5443 102.445 70.5547 102.445C69.8151 102.445 69.1901 102.292 68.6797 101.984C68.638 102.016 68.6172 102.073 68.6172 102.156C68.6172 102.312 68.8229 102.456 69.2344 102.586C69.6458 102.727 70.112 102.797 70.6328 102.797C71.1589 102.797 71.6354 102.732 72.0625 102.602C72.4948 102.466 72.8411 102.307 73.1016 102.125C73.2266 102.234 73.3255 102.438 73.3984 102.734C73.4766 103.026 73.5156 103.294 73.5156 103.539C73.5156 103.779 73.4922 103.992 73.4453 104.18C73.0391 104.523 72.6224 104.768 72.1953 104.914C71.5911 105.133 70.8568 105.242 69.9922 105.242ZM69.8906 99.9531C70.151 99.9531 70.2812 99.8542 70.2812 99.6562C70.2812 99.4688 70.1432 99.375 69.8672 99.375C69.5911 99.375 69.4323 99.5234 69.3906 99.8203C69.5365 99.9089 69.7031 99.9531 69.8906 99.9531ZM78.25 95.5703V101.062C78.25 101.839 78.4375 102.344 78.8125 102.578C78.8177 102.604 78.8203 102.654 78.8203 102.727V102.867C78.8203 103.612 78.6302 104.177 78.25 104.562C77.875 104.948 77.3411 105.141 76.6484 105.141C75.9557 105.141 75.4062 104.948 75 104.562C74.5156 104.104 74.2734 103.411 74.2734 102.484V94.3672C74.8203 94.0339 75.4453 93.8672 76.1484 93.8672C76.8568 93.8672 77.3828 94.0182 77.7266 94.3203C78.0755 94.6172 78.25 95.0339 78.25 95.5703ZM83.125 100.648V102.016C83.1615 102.052 83.2214 102.07 83.3047 102.07C83.388 102.07 83.4479 102.042 83.4844 101.984C83.5208 101.927 83.5391 101.828 83.5391 101.688V100.57C83.5391 100.07 83.5182 99.7396 83.4766 99.5781C83.4349 99.4115 83.3568 99.3281 83.2422 99.3281C83.1693 99.3281 83.1068 99.3542 83.0547 99.4062C83.1016 99.9219 83.125 100.336 83.125 100.648ZM80.2031 104.109C79.349 103.286 78.9219 102.172 78.9219 100.766C78.9219 99.3542 79.3229 98.2422 80.125 97.4297C80.9323 96.612 81.9896 96.2031 83.2969 96.2031C84.6042 96.2031 85.6615 96.6276 86.4688 97.4766C87.2708 98.3255 87.6719 99.4323 87.6719 100.797C87.6719 102.156 87.2839 103.237 86.5078 104.039C85.737 104.841 84.6875 105.242 83.3594 105.242C82.0312 105.242 80.9792 104.865 80.2031 104.109ZM92.4297 105.242C91.0755 105.242 89.9948 104.826 89.1875 103.992C88.3854 103.154 87.9844 102.031 87.9844 100.625C87.9844 99.2188 88.4401 98.1068 89.3516 97.2891C90.1641 96.5599 91.1797 96.1953 92.3984 96.1953C93.4818 96.1953 94.3802 96.4635 95.0938 97C95.8073 97.5312 96.1641 98.2552 96.1641 99.1719C96.1641 99.8073 95.9661 100.326 95.5703 100.727C95.1797 101.122 94.6641 101.32 94.0234 101.32C93.5026 101.32 93.0677 101.182 92.7188 100.906C92.375 100.625 92.1719 100.26 92.1094 99.8125C91.8802 99.8125 91.7656 99.8958 91.7656 100.062C91.7656 100.443 91.9531 100.792 92.3281 101.109C92.7604 101.484 93.2969 101.672 93.9375 101.672C94.5833 101.672 95.1172 101.534 95.5391 101.258C95.7995 101.659 95.9297 102.146 95.9297 102.719C95.9297 103.385 95.6432 103.956 95.0703 104.43C94.4141 104.971 93.5339 105.242 92.4297 105.242ZM100.484 97.9688V101.062C100.484 101.839 100.672 102.344 101.047 102.578C101.052 102.604 101.055 102.654 101.055 102.727V102.867C101.055 103.633 100.846 104.208 100.43 104.594C100.044 104.958 99.5286 105.141 98.8828 105.141C98.2422 105.141 97.7135 104.958 97.2969 104.594C96.7708 104.13 96.5078 103.453 96.5078 102.562V97.4844C96.6016 97.4167 96.7031 97.362 96.8125 97.3203C96.9219 97.2786 97.0365 97.2266 97.1562 97.1641C96.9323 97.0495 96.7292 96.8516 96.5469 96.5703C96.3646 96.2839 96.2734 95.9505 96.2734 95.5703C96.2734 94.9141 96.4896 94.3776 96.9219 93.9609C97.3542 93.5443 97.8828 93.3359 98.5078 93.3359C99.138 93.3359 99.6641 93.5495 100.086 93.9766C100.513 94.3984 100.727 94.9297 100.727 95.5703C100.727 96.0859 100.565 96.5391 100.242 96.9297C99.9193 97.3151 99.526 97.5573 99.0625 97.6562C99.0625 97.8542 99.138 97.9531 99.2891 97.9531C99.5547 97.9531 99.8255 97.849 100.102 97.6406C100.31 97.8021 100.438 97.9115 100.484 97.9688ZM102.078 100.062H102.562C102.823 100.062 102.953 99.9766 102.953 99.8047C102.953 99.7839 102.948 99.7526 102.938 99.7109H101.188C101.073 99.3464 101.016 98.9401 101.016 98.4922C101.016 98.0391 101.049 97.6719 101.117 97.3906C101.414 97.2031 101.823 96.9167 102.344 96.5312C102.49 96.1771 102.68 95.6146 102.914 94.8438C102.945 94.7396 102.982 94.638 103.023 94.5391C103.43 94.4349 103.893 94.3828 104.414 94.3828C104.935 94.3828 105.448 94.4375 105.953 94.5469V96.4609H108.297C108.599 96.9193 108.75 97.4583 108.75 98.0781C108.75 98.3594 108.711 98.6484 108.633 98.9453C108.555 99.2422 108.443 99.4948 108.297 99.7031H106.188V100.883C106.188 101.549 106.466 101.883 107.023 101.883H107.359C107.469 102.279 107.523 102.622 107.523 102.914C107.523 103.633 107.297 104.185 106.844 104.57C106.396 104.951 105.742 105.141 104.883 105.141C104.029 105.141 103.346 104.904 102.836 104.43C102.331 103.951 102.078 103.247 102.078 102.32V100.062ZM111.688 101.055V101.234C111.688 101.318 111.69 101.378 111.695 101.414C111.747 101.44 111.805 101.453 111.867 101.453C112.018 101.453 112.094 101.339 112.094 101.109C112.094 100.344 112.135 99.5495 112.219 98.7266C112.307 97.8984 112.401 97.2604 112.5 96.8125C112.922 96.5052 113.484 96.3516 114.188 96.3516C114.891 96.3516 115.432 96.4896 115.812 96.7656C116.198 97.0365 116.391 97.3646 116.391 97.75C116.391 97.9115 116.294 98.5781 116.102 99.75C115.888 100.943 115.615 102.198 115.281 103.516C115.214 103.781 115.091 104.154 114.914 104.633C114.742 105.112 114.557 105.51 114.359 105.828C113.74 106.812 112.974 107.422 112.062 107.656C111.635 107.766 111.206 107.82 110.773 107.82C109.935 107.82 109.286 107.612 108.828 107.195C108.406 106.82 108.195 106.354 108.195 105.797C108.195 105.245 108.359 104.724 108.688 104.234C108.766 104.214 108.909 104.203 109.117 104.203C109.326 104.203 109.586 104.229 109.898 104.281C110.763 104.443 111.203 104.523 111.219 104.523C111.255 104.529 111.294 104.536 111.336 104.547C111.383 104.552 111.443 104.555 111.516 104.555C111.589 104.555 111.651 104.534 111.703 104.492C111.755 104.451 111.781 104.367 111.781 104.242L109.938 103.891C109.484 103.703 109.091 103.31 108.758 102.711C108.346 101.971 108.068 100.969 107.922 99.7031C107.578 99.2552 107.406 98.7188 107.406 98.0938C107.406 97.4688 107.562 96.9245 107.875 96.4609H109.883C110.555 96.4609 111.057 96.6536 111.391 97.0391C111.635 97.3255 111.792 97.7448 111.859 98.2969C111.745 99.2031 111.688 100.122 111.688 101.055Z" fill="#CDF500"/>
<path d="M92.5518 15.0002C91.8397 16.1873 91.583 17.5863 92.1501 18.7429C93.669 19.7334 101.338 21.5916 100.675 24.1103C100.533 24.5251 100.479 24.7485 100.402 25.0521C99.0675 23.8327 96.3522 23.2403 95.3715 23.4207C94.5004 23.5727 93.619 23.9706 92.7683 24.0063C91.6892 24.0005 90.7239 23.733 89.8974 23.2394C90.4815 24.8516 92.5745 26.0403 93.8723 25.8375C95.9127 25.4305 98.1151 26.5087 99.6013 27.04C98.69 29.5386 95.6327 28.3621 95.6327 28.3621L73.6503 23.3108L70.0386 20.7027L66.9126 23.8972L82.9473 29.1489L61.31 29.6313L55.9184 27.3803L48.5685 31.6379L81.5574 34.034L71.4237 44.7471H89.3108C92.7975 41.9085 100.67 35.517 100.784 35.5903C103.104 40.9938 106.78 39.0197 109.585 35.8698C110.399 34.9559 111.292 38.0984 111.752 32.9826C111.867 32.8024 111.971 32.6201 112.071 32.4364C108.821 31.0553 103.313 33.4697 106.335 29.1928C107.261 27.8837 110.081 28.2381 112.982 29.9085C113.087 27.1572 112.792 22.2655 110.191 21.1849C107.514 20.0728 104.057 20.197 102.743 21.6684C100.95 18.6254 95.6084 18.2306 93.4932 17.9252C92.8707 16.9465 92.6715 16.0361 92.5516 15L92.5518 15.0002ZM58.6006 25.6791L57.7789 26.4063L60.6882 27.6417L62.6446 25.6791H58.6006ZM108.461 30.0695C109.641 30.9363 109.725 31.1409 110.515 31.1692C110.803 30.9852 111.438 30.3376 110.85 30.2011L108.86 29.804C108.654 29.7672 108.495 29.9204 108.461 30.0695ZM51.0603 33.3203L49.9877 34.2693H54.0313L55.1043 33.3203H51.0603ZM43.9781 35.7717L41.8148 38.5402H44.6731L45.6576 37.3839H53.3359L51.9051 38.635H54.781L57.6655 35.8667L43.9781 35.7717ZM46.802 38.644L28 60.209L32.1512 59.3948L49.9298 38.6442L46.802 38.644ZM69.6528 46.6204L45.9605 71.6688L42.9504 72.4377C42.9504 72.4377 40.6252 77.8123 39.555 84.1663C40.9358 84.9078 42.6901 82.7205 42.6901 82.7205C42.6901 82.7205 42.4917 85.0803 43.8871 84.477C46.4285 79.3266 49.2709 73.9762 49.2709 73.9762L78.0649 52.0046L81.8496 53.0112L86.8538 54.3428L75.5762 64.9299L73.5502 62.7395C73.5502 62.7395 67.3633 69.6025 65.0222 74.6782C65.7668 75.5327 68.6873 73.3009 68.6873 73.3009C68.6873 73.3009 67.7193 75.0342 69.0355 74.9792C72.2459 71.9697 74.3865 69.6023 74.3865 69.6023L98.3309 51.8373L89.6362 46.6204H69.6528Z" fill="#CDF500"/>
</svg>
