<svg width="42" height="43" viewBox="0 0 42 43" fill="none" xmlns="http://www.w3.org/2000/svg">
<path d="M21 42.1266C18.1354 42.1266 15.4353 41.5784 12.8997 40.4819C10.3777 39.3854 8.15049 37.8709 6.21793 35.9383C4.28536 34.0058 2.77083 31.7785 1.67434 29.2566C0.577851 26.7209 0.029605 24.0208 0.029605 21.1563C0.029605 18.2917 0.577851 15.5984 1.67434 13.0765C2.77083 10.5408 4.27851 8.30674 6.19737 6.37418C8.12993 4.44161 10.3572 2.92708 12.8791 1.83059C15.4147 0.734101 18.1149 0.185856 20.9794 0.185856C23.844 0.185856 26.5441 0.734101 29.0798 1.83059C31.6154 2.92708 33.8495 4.44161 35.7821 6.37418C37.7146 8.30674 39.2292 10.5408 40.3257 13.0765C41.4221 15.5984 41.9704 18.2917 41.9704 21.1563C41.9704 24.0208 41.4221 26.7209 40.3257 29.2566C39.2292 31.7785 37.7146 34.0058 35.7821 35.9383C33.8495 37.8709 31.6154 39.3854 29.0798 40.4819C26.5578 41.5784 23.8646 42.1266 21 42.1266ZM21 38.6316C23.426 38.6316 25.6944 38.1793 27.8051 37.2747C29.9158 36.3701 31.773 35.1228 33.3766 33.5329C34.9803 31.9293 36.2275 30.0721 37.1184 27.9613C38.023 25.8506 38.4753 23.5822 38.4753 21.1563C38.4753 18.7303 38.023 16.4619 37.1184 14.3512C36.2138 12.2404 34.9597 10.3832 33.3561 8.77961C31.7662 7.17599 29.909 5.92873 27.7845 5.03783C25.6738 4.13322 23.4054 3.68092 20.9794 3.68092C18.5535 3.68092 16.2851 4.13322 14.1743 5.03783C12.0636 5.92873 10.2133 7.17599 8.62335 8.77961C7.03344 10.3832 5.78618 12.2404 4.88158 14.3512C3.99068 16.4619 3.54523 18.7303 3.54523 21.1563C3.54523 23.5822 3.99068 25.8506 4.88158 27.9613C5.78618 30.0721 7.03344 31.9293 8.62335 33.5329C10.227 35.1228 12.0842 36.3701 14.1949 37.2747C16.3056 38.1793 18.574 38.6316 21 38.6316ZM16.0658 12.0896C17.1623 12.0896 18.1286 12.3775 18.9646 12.9531C19.8144 13.5288 20.4929 14.2826 21 15.2146C21.5071 14.2826 22.1856 13.5288 23.0354 12.9531C23.8851 12.3775 24.8514 12.0896 25.9342 12.0896C27.0992 12.0896 28.1272 12.3638 29.0181 12.912C29.9227 13.4465 30.6354 14.1867 31.1562 15.1324C31.6771 16.0644 31.9375 17.1404 31.9375 18.3602C31.9375 19.443 31.7319 20.4984 31.3207 21.5263C30.9095 22.5543 30.3544 23.548 29.6554 24.5074C28.9564 25.4531 28.1752 26.3509 27.3117 27.2007C26.4482 28.0367 25.5573 28.8111 24.639 29.5238C23.7207 30.2366 22.8435 30.8671 22.0074 31.4153C21.8566 31.5249 21.6853 31.6346 21.4934 31.7442C21.3152 31.8402 21.1645 31.8882 21.0411 31.8882C20.9041 31.8882 20.7327 31.8333 20.5271 31.7237C20.3353 31.614 20.1502 31.5112 19.972 31.4153C19.136 30.8808 18.2588 30.264 17.3405 29.565C16.4221 28.8522 15.5312 28.071 14.6678 27.2212C13.8043 26.3714 13.023 25.4737 12.324 24.528C11.6387 23.5685 11.0905 22.5748 10.6793 21.5469C10.2681 20.5052 10.0625 19.443 10.0625 18.3602C10.0625 17.1404 10.3161 16.0644 10.8232 15.1324C11.344 14.1867 12.0567 13.4465 12.9613 12.912C13.866 12.3638 14.9008 12.0896 16.0658 12.0896Z" fill="#E5471E"/>
</svg>
