<svg width="104" height="33" viewBox="0 0 104 33" fill="none" xmlns="http://www.w3.org/2000/svg">
<path d="M38.3828 26V14.7266H43.0391C45.5703 14.7266 47.0703 16.0703 47.0703 18.3359V18.3516C47.0703 19.8359 46.2812 21.0703 45.0312 21.5625L47.4062 26H44.7344L42.6328 21.9141H40.7422V26H38.3828ZM40.7422 20.125H42.7812C43.9531 20.125 44.6562 19.4609 44.6562 18.3516V18.3359C44.6562 17.2578 43.9141 16.5703 42.75 16.5703H40.7422V20.125ZM48.6328 26V14.7266H56.1016V16.6719H50.9922V19.375H55.8125V21.2188H50.9922V24.0547H56.1016V26H48.6328ZM57.8203 22.4141V20.4219H62.8828V22.4141H57.8203ZM64.8203 26V14.7266H69.4766C72.0078 14.7266 73.5078 16.0703 73.5078 18.3359V18.3516C73.5078 19.8359 72.7188 21.0703 71.4688 21.5625L73.8438 26H71.1719L69.0703 21.9141H67.1797V26H64.8203ZM67.1797 20.125H69.2188C70.3906 20.125 71.0938 19.4609 71.0938 18.3516V18.3359C71.0938 17.2578 70.3516 16.5703 69.1875 16.5703H67.1797V20.125ZM80.1562 26.1953C76.8047 26.1953 74.7188 23.9531 74.7188 20.3672V20.3516C74.7188 16.7656 76.8203 14.5312 80.1562 14.5312C83.5 14.5312 85.5938 16.7734 85.5938 20.3516V20.3672C85.5938 23.9531 83.5078 26.1953 80.1562 26.1953ZM80.1562 24.1953C82.0312 24.1953 83.1875 22.7031 83.1875 20.3672V20.3516C83.1875 18 82.0078 16.5312 80.1562 16.5312C78.3125 16.5312 77.125 17.9922 77.125 20.3516V20.3672C77.125 22.7266 78.3047 24.1953 80.1562 24.1953ZM87.1172 26V14.7266H89.4766V24.0547H94.4062V26H87.1172ZM95.8047 26V14.7266H98.1641V24.0547H103.094V26H95.8047Z" fill="#22FBFD"/>
<rect y="6" width="27" height="27" fill="#44E5E7"/>
<circle cx="8" cy="25" r="4" fill="black"/>
<circle cx="19" cy="14" r="4" fill="black"/>
<circle cx="27.5" cy="5.5" r="5.5" fill="#FE3402"/>
<path d="M25.8417 8.40729C25.7232 8.40729 25.6283 8.36419 25.5572 8.27799C25.4883 8.19395 25.4538 8.08189 25.4538 7.94182V3.39703C25.4538 3.25696 25.4883 3.1449 25.5572 3.06086C25.6283 2.97682 25.7232 2.9348 25.8417 2.9348C25.9063 2.9348 25.9677 2.94665 26.0259 2.97035C26.0841 2.9919 26.1455 3.02099 26.2102 3.05763L29.9792 5.23951C30.1149 5.31709 30.2087 5.38713 30.2604 5.44962C30.3143 5.50996 30.3412 5.58323 30.3412 5.66942C30.3412 5.75562 30.3143 5.82997 30.2604 5.89246C30.2087 5.9528 30.1149 6.02284 29.9792 6.10257L26.2102 8.28122C26.1455 8.32001 26.0841 8.35018 26.0259 8.37173C25.9677 8.39543 25.9063 8.40729 25.8417 8.40729Z" fill="black"/>
</svg>
