<svg width="27" height="27" viewBox="0 0 27 27" fill="none" xmlns="http://www.w3.org/2000/svg">
<rect width="27" height="27" rx="13.5" fill="#FE3402"/>
<path d="M10.885 18.7363C10.6752 18.7363 10.5095 18.6629 10.3879 18.516C10.2704 18.3692 10.2117 18.1741 10.2117 17.9308V9.49199C10.2117 9.24866 10.2704 9.05358 10.3879 8.90675C10.5095 8.75992 10.6752 8.6865 10.885 8.6865C10.9941 8.6865 11.099 8.70747 11.1997 8.74943C11.3003 8.78718 11.4073 8.83963 11.5206 8.90675L18.5183 12.9657C18.7532 13.0999 18.9148 13.2216 19.0029 13.3307C19.0952 13.4355 19.1413 13.5614 19.1413 13.7082C19.1413 13.8593 19.0952 13.9893 19.0029 14.0984C18.9148 14.2033 18.7532 14.3207 18.5183 14.4508L11.5206 18.516C11.4073 18.5831 11.3003 18.6356 11.1997 18.6733C11.099 18.7153 10.9941 18.7363 10.885 18.7363Z" fill="#661400"/>
</svg>
