<svg width="17" height="15" viewBox="0 0 17 15" fill="none" xmlns="http://www.w3.org/2000/svg">
<path d="M4.08946 0.00071396C3.5434 0.0163332 2.99119 0.246378 2.51158 0.591767C1.92701 1.01281 1.44084 1.6172 1.24472 2.31284C1.04846 3.00851 1.17851 3.80794 1.79326 4.46578C2.28808 4.99531 2.47222 5.46161 2.49147 5.84096C2.51069 6.22033 2.3708 6.53038 2.13916 6.77152C1.67591 7.25389 0.873388 7.38254 0.424436 6.97845L0 7.45062C0.754614 8.12989 1.92219 7.91394 2.59653 7.21192C2.9337 6.86083 3.15441 6.36862 3.12599 5.80914C3.0976 5.24963 2.82617 4.64085 2.25695 4.03177C1.77815 3.51932 1.70956 3.00382 1.85591 2.48472C2.00225 1.96565 2.39966 1.45446 2.88304 1.10642C3.36632 0.758282 3.92559 0.584704 4.35051 0.650067C4.67532 0.700117 4.94692 0.855664 5.13357 1.24224L5.67475 0.930195C5.39082 0.406203 4.94152 0.0991153 4.44704 0.0229884C4.36487 0.0103572 4.28181 0.00275125 4.19883 0.00071396C4.1625 -0.000168867 4.12589 -0.000304687 4.08949 0.00071396H4.08946ZM7.76508 0.455947L3.68625 2.81153L4.53193 4.27693C5.04227 3.662 5.66758 3.12592 6.39945 2.70332C7.09943 2.29915 7.84063 2.03091 8.59276 1.89051L7.76508 0.455947ZM9.80339 2.40516C9.76855 2.4055 9.73327 2.40632 9.6984 2.4072C8.68335 2.43447 7.65941 2.70862 6.71672 3.25291C3.70017 4.99473 2.66743 8.84019 4.40677 11.8531C6.14601 14.8659 9.99252 15.8942 13.009 14.1524C16.0255 12.4107 17.0572 8.56512 15.3179 5.55231C14.1409 3.51331 12.0001 2.38275 9.80342 2.40509L9.80339 2.40516Z" fill="#FE3402"/>
</svg>
