<svg width="60" height="60" viewBox="0 0 60 60" fill="none" xmlns="http://www.w3.org/2000/svg">
<path d="M6.01924 16.1547L30 2.3094L53.9808 16.1547V43.8453L30 57.6906L6.01924 43.8453V16.1547Z" fill="#F64ADB" stroke="#F64ADB" stroke-width="4"/>
<path d="M27.5 30.5234C27.5703 30.9766 27.7031 31.3828 27.8984 31.7422C28.0938 32.0938 28.332 32.3906 28.6133 32.6328C28.8945 32.875 29.207 33.0625 29.5508 33.1953C29.9023 33.3203 30.2656 33.3828 30.6406 33.3828C31.0078 33.3828 31.25 33.3516 31.3672 33.2891C31.4922 33.2266 31.5547 33.1211 31.5547 32.9727C31.5547 32.8945 31.5352 32.8281 31.4961 32.7734C31.3789 32.7969 31.2734 32.8125 31.1797 32.8203C31.0938 32.8281 30.9453 32.832 30.7344 32.832C30.3906 32.832 30.0586 32.7773 29.7383 32.668C29.418 32.5586 29.1367 32.3945 28.8945 32.1758C28.6523 31.9492 28.457 31.6758 28.3086 31.3555C28.168 31.0273 28.0977 30.6445 28.0977 30.207C28.0977 29.832 28.1602 29.4922 28.2852 29.1875C28.418 28.875 28.6016 28.6094 28.8359 28.3906C29.0703 28.1641 29.3477 27.9922 29.668 27.875C29.9961 27.75 30.3555 27.6875 30.7461 27.6875C30.793 27.6875 30.8594 27.6875 30.9453 27.6875C31.0391 27.6875 31.1289 27.6953 31.2148 27.7109C31.2383 27.6641 31.25 27.6133 31.25 27.5586C31.25 27.3086 31.043 27.1836 30.6289 27.1836C30.3008 27.1836 29.9766 27.2305 29.6562 27.3242C29.3438 27.418 29.0469 27.5625 28.7656 27.7578C28.4922 27.9531 28.25 28.1992 28.0391 28.4961C27.8281 28.7852 27.668 29.1328 27.5586 29.5391C26.9258 29.5391 26.3867 29.4648 25.9414 29.3164C25.4961 29.1602 25.1328 28.9609 24.8516 28.7188C24.5703 28.4688 24.3633 28.1836 24.2305 27.8633C24.1055 27.543 24.043 27.2109 24.043 26.8672C24.043 26.2266 24.1953 25.6367 24.5 25.0977C24.8125 24.5586 25.2422 24.0938 25.7891 23.7031C26.3438 23.3125 26.9961 23.0117 27.7461 22.8008C28.5039 22.582 29.3281 22.4727 30.2188 22.4727C31.1797 22.4727 32.0586 22.5977 32.8555 22.8477C33.6602 23.0898 34.3477 23.4336 34.918 23.8789C35.4961 24.3164 35.9414 24.8438 36.2539 25.4609C36.5742 26.0703 36.7344 26.7422 36.7344 27.4766C36.7344 28.0156 36.6289 28.4922 36.418 28.9062C36.207 29.3125 35.9609 29.6406 35.6797 29.8906C35.5234 29.8125 35.3711 29.7539 35.2227 29.7148C35.082 29.668 34.9336 29.6445 34.7773 29.6445C34.6367 29.6445 34.5352 29.6797 34.4727 29.75C34.418 29.8125 34.3906 29.8828 34.3906 29.9609C34.3906 30.0625 34.4141 30.1289 34.4609 30.1602C34.7031 30.1602 34.9766 30.2148 35.2812 30.3242C35.5859 30.4258 35.8711 30.5977 36.1367 30.8398C36.4102 31.082 36.6367 31.4023 36.8164 31.8008C37.0039 32.1914 37.0977 32.6719 37.0977 33.2422C37.0977 34.0703 36.918 34.7969 36.5586 35.4219C36.1992 36.0391 35.7109 36.5547 35.0938 36.9688C34.4766 37.3828 33.7539 37.6953 32.9258 37.9062C32.0977 38.1094 31.2148 38.2109 30.2773 38.2109C29.3945 38.2109 28.5664 38.1055 27.793 37.8945C27.0195 37.6758 26.3438 37.3633 25.7656 36.957C25.1875 36.5508 24.7305 36.0586 24.3945 35.4805C24.0664 34.9023 23.9023 34.2539 23.9023 33.5352C23.9023 33.1133 23.9688 32.7188 24.1016 32.3516C24.2422 31.9844 24.4453 31.6641 24.7109 31.3906C24.9844 31.1172 25.3203 30.9023 25.7188 30.7461C26.1172 30.5898 26.582 30.5117 27.1133 30.5117C27.1992 30.5117 27.2617 30.5156 27.3008 30.5234C27.3477 30.5234 27.4141 30.5234 27.5 30.5234Z" fill="#F64ADB"/>
</svg>
