<svg width="15" height="15" viewBox="0 0 15 15" fill="none" xmlns="http://www.w3.org/2000/svg">
<path d="M0.803877 0L0 1.60763C0.879501 2.0371 1.85176 2.37632 2.87811 2.62756L0.0628889 14.999H3.31251L4.6096 3.25645L4.64198 2.95971L4.93882 2.997C6.60493 3.20787 8.35419 3.19711 10.019 2.97832L10.3158 2.94002L10.3491 3.2378L11.6462 14.999H14.8949L12.0747 2.60693C13.07 2.35783 14.0131 2.02521 14.8683 1.60763L14.0656 0C10.5305 1.7263 4.3388 1.7263 0.803877 0ZM9.79698 3.59548C9.35236 3.64718 8.90308 3.68466 8.4517 3.70749C7.76608 4.03451 7.4285 4.53344 7.34133 5.41825C8.19819 4.45684 9.07184 4.28226 9.89424 4.47788L9.79695 3.59545L9.79698 3.59548ZM5.16082 3.61215L4.84543 6.47265C5.11437 5.29562 5.69569 4.1706 6.57094 3.71733C6.09808 3.69846 5.62698 3.66387 5.16085 3.61218L5.16082 3.61215ZM7.20376 4.03077C6.10729 4.56557 4.91763 7.46362 6.00397 9.15328C5.25984 9.25328 4.83574 8.95377 4.63909 8.33573L4.50347 9.56599C4.79455 10.5781 5.47265 10.9495 6.2909 10.9495C5.89155 11.6247 4.81144 11.697 4.31179 11.3013L4.25975 11.7789C4.59652 12.6815 5.44287 13.156 6.59745 13.1025C6.01997 13.8473 5.62792 13.8611 4.61444 13.5427C5.84297 15.0753 7.87104 14.127 8.36026 12.5513C8.79721 13.2528 8.26649 14.563 6.96494 14.6817C9.57212 15.0961 10.2786 12.7027 8.7612 10.7698C9.42695 10.8457 10.2478 11.1188 10.7206 11.9745L10.3806 8.88601C9.5842 7.89236 8.00594 8.26671 8.28768 7.42784C8.43076 7.00176 9.37516 6.90759 9.60929 7.77665C10.0005 6.48576 8.43783 6.21395 7.95648 6.84023C8.47349 5.91313 9.53467 5.96158 10.1301 6.61518L9.97191 5.18446C8.92339 4.77081 7.68395 5.45004 7.16744 6.84017C6.76464 6.1743 6.49849 4.74767 7.20379 4.0308L7.20376 4.03077ZM10.0976 12.056C10.3865 13.407 9.86365 14.623 8.68857 14.9803L11.0537 14.9882L10.8435 13.0819C10.6064 12.6264 10.3976 12.3157 10.0976 12.056V12.056ZM4.04558 13.7157L3.90408 15H6.03736C5.16494 14.7389 4.50514 14.4169 4.04555 13.7157L4.04558 13.7157Z" fill="#FF5704"/>
</svg>
