<svg width="54" height="54" viewBox="0 0 54 54" fill="none" xmlns="http://www.w3.org/2000/svg">
<mask id="path-1-inside-1_214_161" fill="white">
<path fill-rule="evenodd" clip-rule="evenodd" d="M27.5 0L31.8889 7.60183C39.0068 9.39008 44.6099 14.9932 46.3982 22.1111L54 26.5L46.6503 30.7434C45.1273 38.7873 38.7873 45.1272 30.7434 46.6503L26.5 54L22.1111 46.3982C14.6155 44.515 8.79975 38.4014 7.34977 30.7434L0 26.5L7.60187 22.1111C9.48503 14.6155 15.5986 8.79973 23.2566 7.34974L27.5 0Z"/>
</mask>
<path fill-rule="evenodd" clip-rule="evenodd" d="M27.5 0L31.8889 7.60183C39.0068 9.39008 44.6099 14.9932 46.3982 22.1111L54 26.5L46.6503 30.7434C45.1273 38.7873 38.7873 45.1272 30.7434 46.6503L26.5 54L22.1111 46.3982C14.6155 44.515 8.79975 38.4014 7.34977 30.7434L0 26.5L7.60187 22.1111C9.48503 14.6155 15.5986 8.79973 23.2566 7.34974L27.5 0Z" fill="white"/>
<path d="M31.8889 7.60183L28.4248 9.60183L29.2717 11.0686L30.9143 11.4813L31.8889 7.60183ZM27.5 0L30.9641 -2L27.5 -8L24.0359 -2L27.5 0ZM46.3982 22.1111L42.5188 23.0857L42.9314 24.7284L44.3982 25.5752L46.3982 22.1111ZM54 26.5L56 29.9641L62 26.5L56 23.0359L54 26.5ZM46.6503 30.7434L44.6503 27.2793L43.0614 28.1966L42.7201 29.9992L46.6503 30.7434ZM30.7434 46.6503L29.9992 42.7201L28.1966 43.0614L27.2793 44.6503L30.7434 46.6503ZM26.5 54L23.0359 56L26.5 62L29.9641 56L26.5 54ZM22.1111 46.3982L25.5752 44.3982L24.7283 42.9314L23.0857 42.5187L22.1111 46.3982ZM7.34977 30.7434L11.2799 29.9992L10.9386 28.1966L9.34977 27.2793L7.34977 30.7434ZM0 26.5L-2 23.0359L-8 26.5L-2 29.9641L0 26.5ZM7.60187 22.1111L9.60187 25.5752L11.0686 24.7283L11.4813 23.0857L7.60187 22.1111ZM23.2566 7.34974L24.0008 11.2799L25.8034 10.9386L26.7207 9.34974L23.2566 7.34974ZM35.353 5.60183L30.9641 -2L24.0359 2L28.4248 9.60183L35.353 5.60183ZM50.2776 21.1364C48.1302 12.5891 41.4109 5.86978 32.8636 3.72239L30.9143 11.4813C36.6026 12.9104 41.0896 17.3974 42.5188 23.0857L50.2776 21.1364ZM56 23.0359L48.3982 18.647L44.3982 25.5752L52 29.9641L56 23.0359ZM48.6503 34.2075L56 29.9641L52 23.0359L44.6503 27.2793L48.6503 34.2075ZM31.4875 50.5804C41.1475 48.7514 48.7514 41.1474 50.5805 31.4875L42.7201 29.9992C41.5031 36.4271 36.4271 41.503 29.9992 42.7201L31.4875 50.5804ZM27.2793 44.6503L23.0359 52L29.9641 56L34.2075 48.6503L27.2793 44.6503ZM29.9641 52L25.5752 44.3982L18.647 48.3982L23.0359 56L29.9641 52ZM3.41959 31.4875C5.16123 40.6859 12.1374 48.0167 21.1364 50.2776L23.0857 42.5187C17.0937 41.0133 12.4383 36.1169 11.2799 29.9992L3.41959 31.4875ZM-2 29.9641L5.34977 34.2075L9.34977 27.2793L2 23.0359L-2 29.9641ZM5.60187 18.647L-2 23.0359L2 29.9641L9.60187 25.5752L5.60187 18.647ZM22.5125 3.41957C13.3142 5.16121 5.98332 12.1374 3.72244 21.1364L11.4813 23.0857C12.9867 17.0937 17.8831 12.4382 24.0008 11.2799L22.5125 3.41957ZM24.0359 -2L19.7925 5.34974L26.7207 9.34974L30.9641 2L24.0359 -2Z" fill="#E5471E" mask="url(#path-1-inside-1_214_161)"/>
</svg>
