<svg width="282" height="36" viewBox="0 0 282 36" fill="none" xmlns="http://www.w3.org/2000/svg">
<path d="M14.5696 35.96C13.1936 35.96 11.8336 35.832 10.4896 35.576C9.17763 35.352 7.89763 35.016 6.64963 34.568C5.43363 34.088 4.28163 33.544 3.19363 32.936C2.10563 32.296 1.12963 31.592 0.265625 30.824L7.22563 23.24C8.02563 24.104 9.08163 24.872 10.3936 25.544C11.7376 26.216 13.1136 26.552 14.5216 26.552C15.1616 26.552 15.7376 26.44 16.2496 26.216C16.7936 25.992 17.0656 25.576 17.0656 24.968C17.0656 24.648 16.9696 24.376 16.7776 24.152C16.6176 23.928 16.3136 23.704 15.8656 23.48C15.4176 23.224 14.7936 22.952 13.9936 22.664C13.2256 22.376 12.2496 22.04 11.0656 21.656C9.91363 21.272 8.80963 20.824 7.75363 20.312C6.69763 19.768 5.75363 19.112 4.92163 18.344C4.12163 17.576 3.48163 16.664 3.00163 15.608C2.52163 14.52 2.28163 13.224 2.28163 11.72C2.28163 9.608 2.71363 7.816 3.57763 6.344C4.44163 4.872 5.54563 3.672 6.88963 2.744C8.26563 1.784 9.80163 1.096 11.4976 0.679998C13.1936 0.263998 14.8736 0.0559978 16.5376 0.0559978C18.7776 0.0559978 21.0496 0.487998 23.3536 1.352C25.6896 2.216 27.7376 3.464 29.4976 5.096L22.3936 12.344C21.6256 11.384 20.6816 10.664 19.5616 10.184C18.4416 9.672 17.4336 9.416 16.5376 9.416C15.7056 9.416 15.0336 9.544 14.5216 9.8C14.0096 10.024 13.7536 10.408 13.7536 10.952C13.7536 11.464 14.0096 11.848 14.5216 12.104C15.0656 12.36 15.9296 12.68 17.1136 13.064C18.3296 13.448 19.6096 13.896 20.9536 14.408C22.2976 14.92 23.5296 15.592 24.6496 16.424C25.8016 17.224 26.7456 18.216 27.4816 19.4C28.2176 20.584 28.5856 22.056 28.5856 23.816C28.5856 25.864 28.1696 27.656 27.3376 29.192C26.5376 30.696 25.4656 31.96 24.1216 32.984C22.8096 33.976 21.3216 34.712 19.6576 35.192C17.9936 35.704 16.2976 35.96 14.5696 35.96ZM65.4106 26.36L70.7866 26.024V35H49.7626C47.0746 35 44.6106 34.632 42.3706 33.896C40.1306 33.128 38.2106 32.008 36.6106 30.536C35.0106 29.064 33.7626 27.256 32.8666 25.112C31.9706 22.936 31.5226 20.44 31.5226 17.624C31.5226 15.032 32.0026 12.664 32.9626 10.52C33.9226 8.344 35.2346 6.488 36.8986 4.952C38.5946 3.384 40.5946 2.184 42.8986 1.352C45.2026 0.487998 47.6986 0.0559978 50.3866 0.0559978C53.0746 0.0559978 55.5546 0.487998 57.8266 1.352C60.0986 2.184 62.0506 3.352 63.6826 4.856C65.3466 6.36 66.6426 8.168 67.5706 10.28C68.4986 12.392 68.9626 14.696 68.9626 17.192C68.9626 18.152 68.8506 19.096 68.6266 20.024C68.4346 20.952 68.1626 21.816 67.8106 22.616C67.4906 23.384 67.1066 24.088 66.6586 24.728C66.2426 25.336 65.8266 25.816 65.4106 26.168V26.36ZM43.6666 17.816C43.6666 18.936 43.8266 19.96 44.1466 20.888C44.4986 21.816 44.9626 22.616 45.5386 23.288C46.1466 23.96 46.8666 24.488 47.6986 24.872C48.5306 25.224 49.4266 25.4 50.3866 25.4C51.3466 25.4 52.2266 25.224 53.0266 24.872C53.8586 24.488 54.5786 23.96 55.1866 23.288C55.7946 22.616 56.2586 21.816 56.5786 20.888C56.9306 19.96 57.1066 18.936 57.1066 17.816C57.1066 16.728 56.9306 15.736 56.5786 14.84C56.2586 13.912 55.7946 13.144 55.1866 12.536C54.5786 11.896 53.8586 11.4 53.0266 11.048C52.2266 10.696 51.3466 10.52 50.3866 10.52C49.4266 10.52 48.5306 10.696 47.6986 11.048C46.8666 11.4 46.1466 11.896 45.5386 12.536C44.9626 13.144 44.4986 13.912 44.1466 14.84C43.8266 15.736 43.6666 16.728 43.6666 17.816ZM89.807 35.96C87.151 35.96 84.831 35.592 82.847 34.856C80.895 34.12 79.263 33.112 77.951 31.832C76.639 30.552 75.663 29.048 75.023 27.32C74.383 25.56 74.063 23.672 74.063 21.656V1.016H85.487V20.408C85.487 22.04 85.871 23.32 86.639 24.248C87.439 25.144 88.559 25.592 89.999 25.592C91.439 25.592 92.543 25.144 93.311 24.248C94.111 23.32 94.511 22.04 94.511 20.408V1.016H105.887V21.656C105.887 23.672 105.535 25.56 104.831 27.32C104.159 29.048 103.151 30.552 101.807 31.832C100.463 33.112 98.783 34.12 96.767 34.856C94.783 35.592 92.463 35.96 89.807 35.96ZM120.374 1.016H132.518L145.766 35H133.334L131.558 30.008H120.758L119.078 35H106.982L120.374 1.016ZM126.278 12.872L123.494 21.272H129.014L126.278 12.872ZM157.64 1.016H169.784L183.032 35H170.6L168.824 30.008H158.024L156.344 35H144.248L157.64 1.016ZM163.544 12.872L160.76 21.272H166.28L163.544 12.872ZM194.905 1.016H207.049L220.297 35H207.865L206.089 30.008H195.289L193.609 35H181.513L194.905 1.016ZM200.809 12.872L198.025 21.272H203.545L200.809 12.872ZM222.715 1.016H237.355C239.019 1.016 240.667 1.192 242.299 1.544C243.963 1.864 245.435 2.456 246.715 3.32C248.027 4.152 249.083 5.288 249.883 6.728C250.683 8.136 251.083 9.912 251.083 12.056C251.083 14.136 250.571 15.976 249.547 17.576C248.523 19.144 247.051 20.36 245.131 21.224L253.771 35H240.619L234.091 22.856H233.755V35H222.715V1.016ZM233.659 15.368H235.915C236.299 15.368 236.715 15.336 237.163 15.272C237.643 15.208 238.075 15.08 238.459 14.888C238.875 14.664 239.211 14.376 239.467 14.024C239.755 13.64 239.899 13.144 239.899 12.536C239.899 11.928 239.787 11.448 239.563 11.096C239.339 10.744 239.051 10.488 238.699 10.328C238.347 10.136 237.963 10.024 237.547 9.992C237.131 9.928 236.747 9.896 236.395 9.896H233.659V15.368ZM256.98 1.016H280.357V10.52H267.733V13.448H279.589V22.328H267.733V25.496H281.173V35H256.98V1.016Z" fill="#22FBFD"/>
</svg>
