<svg width="142" height="159" viewBox="0 0 142 159" fill="none" xmlns="http://www.w3.org/2000/svg">
<rect x="2" y="2" width="138" height="155" fill="#120509" stroke="#22FBFD" stroke-width="4"/>
<rect x="4" y="119" width="134" height="36" fill="#22FBFD"/>
<mask id="path-3-outside-1_544_16" maskUnits="userSpaceOnUse" x="38" y="127" width="64" height="20" fill="black">
<rect fill="white" x="38" y="127" width="64" height="20"/>
<path d="M44.8633 134.344C44.694 134.396 44.6094 134.497 44.6094 134.646V134.695C44.6094 134.728 44.6126 134.747 44.6191 134.754C44.6908 134.747 44.7852 134.744 44.9023 134.744H45.1367C45.8789 134.744 46.5723 134.858 47.2168 135.086C47.8678 135.307 48.3984 135.665 48.8086 136.16C49.2643 136.72 49.4922 137.426 49.4922 138.279C49.4922 139.607 49.0332 140.61 48.1152 141.287C47.1973 141.964 45.9701 142.303 44.4336 142.303C42.8971 142.303 41.6927 142.049 40.8203 141.541C39.9544 141.033 39.5215 140.288 39.5215 139.305C39.5215 138.94 39.5996 138.608 39.7559 138.309C39.9121 138.003 40.0879 137.788 40.2832 137.664C40.6413 137.964 41.1589 138.224 41.8359 138.445C42.5195 138.66 43.2422 138.768 44.0039 138.768C44.3099 138.768 44.4629 138.683 44.4629 138.514C44.4629 138.436 44.4531 138.37 44.4336 138.318C44.388 138.325 44.3327 138.328 44.2676 138.328H44.1602C42.7799 138.328 41.6764 138.055 40.8496 137.508C39.9121 136.889 39.4434 136.017 39.4434 134.891C39.4434 133.764 39.8633 132.853 40.7031 132.156C41.6341 131.388 42.9134 131.004 44.541 131.004C45.3418 131.004 46.0872 131.089 46.7773 131.258C47.474 131.427 48.0697 131.652 48.5645 131.932C48.6882 132.199 48.75 132.592 48.75 133.113C48.75 133.908 48.5319 134.516 48.0957 134.939C47.7637 134.757 47.3568 134.607 46.875 134.49C46.3997 134.367 45.9701 134.305 45.5859 134.305C45.2018 134.305 44.9609 134.318 44.8633 134.344ZM50.5762 135.828H51.1816C51.5072 135.828 51.6699 135.721 51.6699 135.506C51.6699 135.48 51.6634 135.441 51.6504 135.389H49.4629C49.3197 134.933 49.248 134.425 49.248 133.865C49.248 133.299 49.2904 132.84 49.375 132.488C49.7461 132.254 50.2572 131.896 50.9082 131.414C51.0905 130.971 51.3281 130.268 51.6211 129.305C51.6602 129.174 51.7057 129.048 51.7578 128.924C52.2656 128.794 52.8451 128.729 53.4961 128.729C54.1471 128.729 54.7884 128.797 55.4199 128.934V131.326H58.3496C58.7272 131.899 58.916 132.573 58.916 133.348C58.916 133.699 58.8672 134.061 58.7695 134.432C58.6719 134.803 58.5319 135.118 58.3496 135.379H55.7129V136.854C55.7129 137.687 56.0612 138.104 56.7578 138.104H57.1777C57.3145 138.598 57.3828 139.028 57.3828 139.393C57.3828 140.291 57.0996 140.981 56.5332 141.463C55.9733 141.938 55.1562 142.176 54.082 142.176C53.0143 142.176 52.1615 141.88 51.5234 141.287C50.8919 140.688 50.5762 139.809 50.5762 138.65V135.828ZM60.7812 142.127C60.0065 142.127 59.388 141.987 58.9258 141.707C58.4115 141.414 58.1543 140.981 58.1543 140.408V135.379C57.7702 134.839 57.5781 134.174 57.5781 133.387C57.5781 132.592 57.7702 131.906 58.1543 131.326H59.6484C60.4167 131.326 60.9668 131.574 61.2988 132.068C61.1361 132.251 60.9928 132.482 60.8691 132.762C60.7454 133.042 60.6836 133.243 60.6836 133.367C60.6836 133.484 60.7129 133.572 60.7715 133.631C60.8366 133.689 60.9277 133.719 61.0449 133.719C61.2728 132.814 61.7057 132.15 62.3438 131.727C62.8711 131.368 63.5221 131.189 64.2969 131.189C65.2604 131.189 66.0156 131.395 66.5625 131.805C66.7578 132.326 66.8555 132.964 66.8555 133.719C66.8555 134.467 66.7057 135.148 66.4062 135.76C66.1849 135.877 65.8789 135.978 65.4883 136.062C65.0977 136.141 64.7038 136.18 64.3066 136.18C63.9095 136.18 63.5514 136.154 63.2324 136.102C62.9199 136.043 62.6921 135.991 62.5488 135.945C62.4967 135.997 62.4707 136.072 62.4707 136.17C62.4707 136.268 62.5326 136.342 62.6562 136.395C62.7865 136.44 63.0013 136.492 63.3008 136.551V141.453C62.5911 141.902 61.7513 142.127 60.7812 142.127ZM72.2754 136.561V138.27C72.321 138.315 72.3958 138.338 72.5 138.338C72.6042 138.338 72.679 138.302 72.7246 138.23C72.7702 138.159 72.793 138.035 72.793 137.859V136.463C72.793 135.838 72.7669 135.424 72.7148 135.223C72.6628 135.014 72.5651 134.91 72.4219 134.91C72.3307 134.91 72.2526 134.943 72.1875 135.008C72.2461 135.652 72.2754 136.17 72.2754 136.561ZM68.623 140.887C67.5553 139.858 67.0215 138.465 67.0215 136.707C67.0215 134.943 67.5228 133.553 68.5254 132.537C69.5345 131.515 70.8561 131.004 72.4902 131.004C74.1243 131.004 75.446 131.535 76.4551 132.596C77.4577 133.657 77.959 135.04 77.959 136.746C77.959 138.445 77.474 139.796 76.5039 140.799C75.5404 141.801 74.2285 142.303 72.5684 142.303C70.9082 142.303 69.5931 141.831 68.623 140.887ZM88.9355 137.166C88.9355 137.635 88.9876 138.012 89.0918 138.299C89.196 138.585 89.3783 138.81 89.6387 138.973C89.6452 139.005 89.6484 139.067 89.6484 139.158V139.334C89.6484 140.232 89.388 140.932 88.8672 141.434C88.3529 141.928 87.6855 142.176 86.8652 142.176C86.0514 142.176 85.3906 141.945 84.8828 141.482C84.2904 140.955 83.9941 140.154 83.9941 139.08C83.9941 138.624 84.0137 138.224 84.0527 137.879C84.0983 137.527 84.1276 137.277 84.1406 137.127C84.1602 136.977 84.1797 136.837 84.1992 136.707C84.2188 136.577 84.2285 136.385 84.2285 136.131C84.2285 135.877 84.1927 135.695 84.1211 135.584C84.056 135.473 83.9616 135.418 83.8379 135.418C83.7207 135.418 83.6165 135.444 83.5254 135.496L83.6523 137.088C83.5352 137.745 83.4766 138.442 83.4766 139.178C83.4766 139.913 83.6426 140.584 83.9746 141.189C83.3366 141.847 82.4414 142.176 81.2891 142.176C80.6315 142.176 80.0618 142.003 79.5801 141.658C79.0202 141.268 78.7402 140.75 78.7402 140.105V135.379C78.3561 134.839 78.1641 134.174 78.1641 133.387C78.1641 132.592 78.3561 131.906 78.7402 131.326H80.4785C80.9408 131.326 81.3346 131.499 81.6602 131.844C81.3737 132.111 81.2305 132.332 81.2305 132.508C81.2305 132.71 81.3444 132.811 81.5723 132.811C81.8587 132.316 82.2949 131.906 82.8809 131.58C83.4733 131.255 84.1439 131.092 84.8926 131.092C86.0189 131.092 86.9336 131.368 87.6367 131.922C88.5221 132.618 88.9648 133.699 88.9648 135.164L88.9355 137.166ZM95.4688 134.998C95.4688 134.764 95.3809 134.646 95.2051 134.646C95.0423 134.646 94.9609 134.744 94.9609 134.939V135.945C95.013 135.991 95.0911 136.014 95.1953 136.014C95.2995 136.014 95.3711 135.975 95.4102 135.896C95.4492 135.818 95.4688 135.675 95.4688 135.467V134.998ZM95.8301 138.953C95.4134 138.953 95.0586 138.924 94.7656 138.865C94.7461 138.924 94.7363 138.979 94.7363 139.031C94.7363 139.174 94.8372 139.272 95.0391 139.324C95.2474 139.37 95.5111 139.393 95.8301 139.393C96.8457 139.393 97.7116 139.243 98.4277 138.943C99.1309 139.126 99.6777 139.523 100.068 140.135C100.387 140.636 100.547 141.225 100.547 141.902C100.547 143.107 100.036 144.044 99.0137 144.715C97.9915 145.385 96.6732 145.721 95.0586 145.721C93.4505 145.721 92.207 145.434 91.3281 144.861C90.5143 144.34 90.1074 143.663 90.1074 142.83C90.1074 142.511 90.1823 142.205 90.332 141.912C90.4818 141.613 90.6543 141.408 90.8496 141.297C91.1751 141.57 91.6536 141.792 92.2852 141.961C92.9232 142.13 93.5775 142.215 94.248 142.215C94.9186 142.215 95.3483 142.189 95.5371 142.137C95.7324 142.085 95.8301 141.993 95.8301 141.863C95.8301 141.798 95.8105 141.733 95.7715 141.668C95.446 141.74 95.0391 141.775 94.5508 141.775C93.2943 141.775 92.3079 141.596 91.5918 141.238C90.7194 140.809 90.2832 140.161 90.2832 139.295C90.2832 138.956 90.3516 138.644 90.4883 138.357C90.625 138.064 90.8268 137.846 91.0938 137.703C90.7357 137.482 90.4297 137.146 90.1758 136.697C89.9284 136.248 89.8047 135.695 89.8047 135.037C89.8047 133.787 90.2734 132.801 91.2109 132.078C92.1484 131.355 93.3659 130.994 94.8633 130.994C95.5859 130.994 96.2826 131.115 96.9531 131.355V130.672C97.3372 130.522 97.8451 130.447 98.4766 130.447C99.1146 130.447 99.5996 130.555 99.9316 130.77C100.335 131.03 100.537 131.489 100.537 132.146C100.537 132.511 100.498 132.804 100.42 133.025C100.348 133.247 100.241 133.478 100.098 133.719C100.267 134.148 100.352 134.682 100.352 135.32C100.352 136.473 99.9414 137.368 99.1211 138.006C98.3073 138.637 97.2103 138.953 95.8301 138.953Z"/>
</mask>
<path d="M44.8633 134.344C44.694 134.396 44.6094 134.497 44.6094 134.646V134.695C44.6094 134.728 44.6126 134.747 44.6191 134.754C44.6908 134.747 44.7852 134.744 44.9023 134.744H45.1367C45.8789 134.744 46.5723 134.858 47.2168 135.086C47.8678 135.307 48.3984 135.665 48.8086 136.16C49.2643 136.72 49.4922 137.426 49.4922 138.279C49.4922 139.607 49.0332 140.61 48.1152 141.287C47.1973 141.964 45.9701 142.303 44.4336 142.303C42.8971 142.303 41.6927 142.049 40.8203 141.541C39.9544 141.033 39.5215 140.288 39.5215 139.305C39.5215 138.94 39.5996 138.608 39.7559 138.309C39.9121 138.003 40.0879 137.788 40.2832 137.664C40.6413 137.964 41.1589 138.224 41.8359 138.445C42.5195 138.66 43.2422 138.768 44.0039 138.768C44.3099 138.768 44.4629 138.683 44.4629 138.514C44.4629 138.436 44.4531 138.37 44.4336 138.318C44.388 138.325 44.3327 138.328 44.2676 138.328H44.1602C42.7799 138.328 41.6764 138.055 40.8496 137.508C39.9121 136.889 39.4434 136.017 39.4434 134.891C39.4434 133.764 39.8633 132.853 40.7031 132.156C41.6341 131.388 42.9134 131.004 44.541 131.004C45.3418 131.004 46.0872 131.089 46.7773 131.258C47.474 131.427 48.0697 131.652 48.5645 131.932C48.6882 132.199 48.75 132.592 48.75 133.113C48.75 133.908 48.5319 134.516 48.0957 134.939C47.7637 134.757 47.3568 134.607 46.875 134.49C46.3997 134.367 45.9701 134.305 45.5859 134.305C45.2018 134.305 44.9609 134.318 44.8633 134.344ZM50.5762 135.828H51.1816C51.5072 135.828 51.6699 135.721 51.6699 135.506C51.6699 135.48 51.6634 135.441 51.6504 135.389H49.4629C49.3197 134.933 49.248 134.425 49.248 133.865C49.248 133.299 49.2904 132.84 49.375 132.488C49.7461 132.254 50.2572 131.896 50.9082 131.414C51.0905 130.971 51.3281 130.268 51.6211 129.305C51.6602 129.174 51.7057 129.048 51.7578 128.924C52.2656 128.794 52.8451 128.729 53.4961 128.729C54.1471 128.729 54.7884 128.797 55.4199 128.934V131.326H58.3496C58.7272 131.899 58.916 132.573 58.916 133.348C58.916 133.699 58.8672 134.061 58.7695 134.432C58.6719 134.803 58.5319 135.118 58.3496 135.379H55.7129V136.854C55.7129 137.687 56.0612 138.104 56.7578 138.104H57.1777C57.3145 138.598 57.3828 139.028 57.3828 139.393C57.3828 140.291 57.0996 140.981 56.5332 141.463C55.9733 141.938 55.1562 142.176 54.082 142.176C53.0143 142.176 52.1615 141.88 51.5234 141.287C50.8919 140.688 50.5762 139.809 50.5762 138.65V135.828ZM60.7812 142.127C60.0065 142.127 59.388 141.987 58.9258 141.707C58.4115 141.414 58.1543 140.981 58.1543 140.408V135.379C57.7702 134.839 57.5781 134.174 57.5781 133.387C57.5781 132.592 57.7702 131.906 58.1543 131.326H59.6484C60.4167 131.326 60.9668 131.574 61.2988 132.068C61.1361 132.251 60.9928 132.482 60.8691 132.762C60.7454 133.042 60.6836 133.243 60.6836 133.367C60.6836 133.484 60.7129 133.572 60.7715 133.631C60.8366 133.689 60.9277 133.719 61.0449 133.719C61.2728 132.814 61.7057 132.15 62.3438 131.727C62.8711 131.368 63.5221 131.189 64.2969 131.189C65.2604 131.189 66.0156 131.395 66.5625 131.805C66.7578 132.326 66.8555 132.964 66.8555 133.719C66.8555 134.467 66.7057 135.148 66.4062 135.76C66.1849 135.877 65.8789 135.978 65.4883 136.062C65.0977 136.141 64.7038 136.18 64.3066 136.18C63.9095 136.18 63.5514 136.154 63.2324 136.102C62.9199 136.043 62.6921 135.991 62.5488 135.945C62.4967 135.997 62.4707 136.072 62.4707 136.17C62.4707 136.268 62.5326 136.342 62.6562 136.395C62.7865 136.44 63.0013 136.492 63.3008 136.551V141.453C62.5911 141.902 61.7513 142.127 60.7812 142.127ZM72.2754 136.561V138.27C72.321 138.315 72.3958 138.338 72.5 138.338C72.6042 138.338 72.679 138.302 72.7246 138.23C72.7702 138.159 72.793 138.035 72.793 137.859V136.463C72.793 135.838 72.7669 135.424 72.7148 135.223C72.6628 135.014 72.5651 134.91 72.4219 134.91C72.3307 134.91 72.2526 134.943 72.1875 135.008C72.2461 135.652 72.2754 136.17 72.2754 136.561ZM68.623 140.887C67.5553 139.858 67.0215 138.465 67.0215 136.707C67.0215 134.943 67.5228 133.553 68.5254 132.537C69.5345 131.515 70.8561 131.004 72.4902 131.004C74.1243 131.004 75.446 131.535 76.4551 132.596C77.4577 133.657 77.959 135.04 77.959 136.746C77.959 138.445 77.474 139.796 76.5039 140.799C75.5404 141.801 74.2285 142.303 72.5684 142.303C70.9082 142.303 69.5931 141.831 68.623 140.887ZM88.9355 137.166C88.9355 137.635 88.9876 138.012 89.0918 138.299C89.196 138.585 89.3783 138.81 89.6387 138.973C89.6452 139.005 89.6484 139.067 89.6484 139.158V139.334C89.6484 140.232 89.388 140.932 88.8672 141.434C88.3529 141.928 87.6855 142.176 86.8652 142.176C86.0514 142.176 85.3906 141.945 84.8828 141.482C84.2904 140.955 83.9941 140.154 83.9941 139.08C83.9941 138.624 84.0137 138.224 84.0527 137.879C84.0983 137.527 84.1276 137.277 84.1406 137.127C84.1602 136.977 84.1797 136.837 84.1992 136.707C84.2188 136.577 84.2285 136.385 84.2285 136.131C84.2285 135.877 84.1927 135.695 84.1211 135.584C84.056 135.473 83.9616 135.418 83.8379 135.418C83.7207 135.418 83.6165 135.444 83.5254 135.496L83.6523 137.088C83.5352 137.745 83.4766 138.442 83.4766 139.178C83.4766 139.913 83.6426 140.584 83.9746 141.189C83.3366 141.847 82.4414 142.176 81.2891 142.176C80.6315 142.176 80.0618 142.003 79.5801 141.658C79.0202 141.268 78.7402 140.75 78.7402 140.105V135.379C78.3561 134.839 78.1641 134.174 78.1641 133.387C78.1641 132.592 78.3561 131.906 78.7402 131.326H80.4785C80.9408 131.326 81.3346 131.499 81.6602 131.844C81.3737 132.111 81.2305 132.332 81.2305 132.508C81.2305 132.71 81.3444 132.811 81.5723 132.811C81.8587 132.316 82.2949 131.906 82.8809 131.58C83.4733 131.255 84.1439 131.092 84.8926 131.092C86.0189 131.092 86.9336 131.368 87.6367 131.922C88.5221 132.618 88.9648 133.699 88.9648 135.164L88.9355 137.166ZM95.4688 134.998C95.4688 134.764 95.3809 134.646 95.2051 134.646C95.0423 134.646 94.9609 134.744 94.9609 134.939V135.945C95.013 135.991 95.0911 136.014 95.1953 136.014C95.2995 136.014 95.3711 135.975 95.4102 135.896C95.4492 135.818 95.4688 135.675 95.4688 135.467V134.998ZM95.8301 138.953C95.4134 138.953 95.0586 138.924 94.7656 138.865C94.7461 138.924 94.7363 138.979 94.7363 139.031C94.7363 139.174 94.8372 139.272 95.0391 139.324C95.2474 139.37 95.5111 139.393 95.8301 139.393C96.8457 139.393 97.7116 139.243 98.4277 138.943C99.1309 139.126 99.6777 139.523 100.068 140.135C100.387 140.636 100.547 141.225 100.547 141.902C100.547 143.107 100.036 144.044 99.0137 144.715C97.9915 145.385 96.6732 145.721 95.0586 145.721C93.4505 145.721 92.207 145.434 91.3281 144.861C90.5143 144.34 90.1074 143.663 90.1074 142.83C90.1074 142.511 90.1823 142.205 90.332 141.912C90.4818 141.613 90.6543 141.408 90.8496 141.297C91.1751 141.57 91.6536 141.792 92.2852 141.961C92.9232 142.13 93.5775 142.215 94.248 142.215C94.9186 142.215 95.3483 142.189 95.5371 142.137C95.7324 142.085 95.8301 141.993 95.8301 141.863C95.8301 141.798 95.8105 141.733 95.7715 141.668C95.446 141.74 95.0391 141.775 94.5508 141.775C93.2943 141.775 92.3079 141.596 91.5918 141.238C90.7194 140.809 90.2832 140.161 90.2832 139.295C90.2832 138.956 90.3516 138.644 90.4883 138.357C90.625 138.064 90.8268 137.846 91.0938 137.703C90.7357 137.482 90.4297 137.146 90.1758 136.697C89.9284 136.248 89.8047 135.695 89.8047 135.037C89.8047 133.787 90.2734 132.801 91.2109 132.078C92.1484 131.355 93.3659 130.994 94.8633 130.994C95.5859 130.994 96.2826 131.115 96.9531 131.355V130.672C97.3372 130.522 97.8451 130.447 98.4766 130.447C99.1146 130.447 99.5996 130.555 99.9316 130.77C100.335 131.03 100.537 131.489 100.537 132.146C100.537 132.511 100.498 132.804 100.42 133.025C100.348 133.247 100.241 133.478 100.098 133.719C100.267 134.148 100.352 134.682 100.352 135.32C100.352 136.473 99.9414 137.368 99.1211 138.006C98.3073 138.637 97.2103 138.953 95.8301 138.953Z" fill="#120509"/>
<path d="M44.8633 134.344L44.6056 133.378L44.5873 133.382L44.5692 133.388L44.8633 134.344ZM44.6191 134.754L43.912 135.461L44.2432 135.792L44.7097 135.75L44.6191 134.754ZM47.2168 135.086L46.8835 136.029L46.8949 136.033L47.2168 135.086ZM48.8086 136.16L49.5842 135.529L49.5785 135.522L48.8086 136.16ZM40.8203 141.541L40.3144 142.404L40.3172 142.405L40.8203 141.541ZM39.7559 138.309L40.6425 138.771L40.6465 138.763L39.7559 138.309ZM40.2832 137.664L40.9248 136.897L40.3648 136.429L39.7482 136.819L40.2832 137.664ZM41.8359 138.445L41.5252 139.396L41.5361 139.399L41.8359 138.445ZM44.4336 138.318L45.3699 137.967L45.0877 137.215L44.2922 137.328L44.4336 138.318ZM40.8496 137.508L41.4013 136.674L41.4003 136.673L40.8496 137.508ZM40.7031 132.156L40.0667 131.385L40.0647 131.387L40.7031 132.156ZM46.7773 131.258L46.5391 132.229L46.5412 132.23L46.7773 131.258ZM48.5645 131.932L49.4718 131.511L49.3366 131.22L49.0569 131.061L48.5645 131.932ZM48.0957 134.939L47.6144 135.816L48.2619 136.171L48.792 135.657L48.0957 134.939ZM46.875 134.49L46.6231 135.458L46.6309 135.46L46.6386 135.462L46.875 134.49ZM44.5692 133.388C44.3622 133.452 44.1088 133.575 43.9067 133.816C43.6927 134.071 43.6094 134.371 43.6094 134.646H45.6094C45.6094 134.773 45.5683 134.947 45.439 135.101C45.3216 135.241 45.1951 135.288 45.1574 135.3L44.5692 133.388ZM43.6094 134.646V134.695H45.6094V134.646H43.6094ZM43.6094 134.695C43.6094 134.736 43.6108 134.811 43.6254 134.899C43.6297 134.924 43.6673 135.216 43.912 135.461L45.3262 134.047C45.4637 134.184 45.5255 134.327 45.5512 134.395C45.5799 134.472 45.5925 134.536 45.5982 134.57C45.6095 134.638 45.6094 134.687 45.6094 134.695H43.6094ZM44.7097 135.75C44.7385 135.747 44.7992 135.744 44.9023 135.744V133.744C44.7712 133.744 44.643 133.748 44.5286 133.758L44.7097 135.75ZM44.9023 135.744H45.1367V133.744H44.9023V135.744ZM45.1367 135.744C45.7751 135.744 46.3548 135.842 46.8835 136.029L47.5501 134.143C46.7897 133.874 45.9827 133.744 45.1367 133.744V135.744ZM46.8949 136.033C47.3837 136.199 47.7548 136.456 48.0387 136.798L49.5785 135.522C49.0421 134.875 48.352 134.416 47.5387 134.139L46.8949 136.033ZM48.033 136.791C48.3183 137.142 48.4922 137.613 48.4922 138.279H50.4922C50.4922 137.24 50.2104 136.298 49.5842 135.529L48.033 136.791ZM48.4922 138.279C48.4922 139.349 48.1397 140.026 47.5216 140.482L48.7088 142.092C49.9267 141.194 50.4922 139.866 50.4922 138.279H48.4922ZM47.5216 140.482C46.8264 140.995 45.8296 141.303 44.4336 141.303V143.303C46.1105 143.303 47.5681 142.933 48.7088 142.092L47.5216 140.482ZM44.4336 141.303C42.9889 141.303 41.9833 141.061 41.3234 140.677L40.3172 142.405C41.4021 143.037 42.8054 143.303 44.4336 143.303V141.303ZM41.3262 140.678C40.7584 140.345 40.5215 139.924 40.5215 139.305H38.5215C38.5215 140.652 39.1504 141.721 40.3144 142.404L41.3262 140.678ZM40.5215 139.305C40.5215 139.088 40.5665 138.917 40.6424 138.771L38.8693 137.846C38.6327 138.299 38.5215 138.792 38.5215 139.305H40.5215ZM40.6465 138.763C40.6995 138.66 40.7452 138.592 40.7788 138.551C40.8121 138.511 40.8271 138.503 40.8183 138.509L39.7482 136.819C39.3452 137.074 39.0661 137.461 38.8653 137.854L40.6465 138.763ZM39.6416 138.431C40.1347 138.844 40.7843 139.154 41.5252 139.396L42.1467 137.495C41.5334 137.294 41.1478 137.084 40.9248 136.897L39.6416 138.431ZM41.5361 139.399C42.3227 139.647 43.1469 139.768 44.0039 139.768V137.768C43.3375 137.768 42.7164 137.674 42.1358 137.491L41.5361 139.399ZM44.0039 139.768C44.2163 139.768 44.5344 139.744 44.8322 139.579C44.9962 139.488 45.166 139.348 45.2907 139.141C45.4164 138.932 45.4629 138.712 45.4629 138.514H43.4629C43.4629 138.4 43.4902 138.254 43.5777 138.109C43.6642 137.965 43.7766 137.877 43.8641 137.829C44.0089 137.749 44.0975 137.768 44.0039 137.768V139.768ZM45.4629 138.514C45.4629 138.36 45.4448 138.167 45.3699 137.967L43.4973 138.669C43.4785 138.619 43.4703 138.579 43.4666 138.555C43.4629 138.53 43.4629 138.515 43.4629 138.514H45.4629ZM44.2922 137.328C44.3017 137.327 44.3046 137.327 44.2992 137.327C44.2941 137.328 44.2838 137.328 44.2676 137.328V139.328C44.3623 139.328 44.4678 139.324 44.575 139.308L44.2922 137.328ZM44.2676 137.328H44.1602V139.328H44.2676V137.328ZM44.1602 137.328C42.9019 137.328 42.0119 137.078 41.4013 136.674L40.2979 138.342C41.3409 139.032 42.658 139.328 44.1602 139.328V137.328ZM41.4003 136.673C40.7443 136.24 40.4434 135.682 40.4434 134.891H38.4434C38.4434 136.352 39.08 137.538 40.2989 138.343L41.4003 136.673ZM40.4434 134.891C40.4434 134.051 40.7391 133.426 41.3415 132.926L40.0647 131.387C38.9874 132.28 38.4434 133.478 38.4434 134.891H40.4434ZM41.3396 132.928C42.0376 132.352 43.0647 132.004 44.541 132.004V130.004C42.7622 130.004 41.2307 130.424 40.0667 131.385L41.3396 132.928ZM44.541 132.004C45.2715 132.004 45.9361 132.081 46.5391 132.229L47.0156 130.287C46.2384 130.096 45.4121 130.004 44.541 130.004V132.004ZM46.5412 132.23C47.1704 132.382 47.6753 132.578 48.072 132.802L49.0569 131.061C48.464 130.726 47.7776 130.472 47.0135 130.286L46.5412 132.23ZM47.6571 132.352C47.6895 132.422 47.75 132.643 47.75 133.113H49.75C49.75 132.542 49.6868 131.975 49.4718 131.511L47.6571 132.352ZM47.75 133.113C47.75 133.724 47.5869 134.04 47.3994 134.222L48.792 135.657C49.4769 134.993 49.75 134.091 49.75 133.113H47.75ZM48.577 134.063C48.1483 133.828 47.6539 133.651 47.1114 133.519L46.6386 135.462C47.0597 135.564 47.379 135.687 47.6144 135.816L48.577 134.063ZM47.1269 133.522C46.591 133.383 46.0748 133.305 45.5859 133.305V135.305C45.8653 135.305 46.2085 135.35 46.6231 135.458L47.1269 133.522ZM45.5859 133.305C45.385 133.305 45.2089 133.308 45.0632 133.316C44.9423 133.322 44.7647 133.335 44.6056 133.378L45.1209 135.31C45.0774 135.322 45.0561 135.323 45.078 135.32C45.0938 135.318 45.1236 135.316 45.1712 135.313C45.2664 135.308 45.4027 135.305 45.5859 135.305V133.305ZM50.5762 135.828V134.828H49.5762V135.828H50.5762ZM51.6504 135.389L52.6205 135.146L52.4312 134.389H51.6504V135.389ZM49.4629 135.389L48.5089 135.688L48.729 136.389H49.4629V135.389ZM49.375 132.488L48.841 131.643L48.4978 131.86L48.4028 132.254L49.375 132.488ZM50.9082 131.414L51.503 132.218L51.7269 132.052L51.8329 131.795L50.9082 131.414ZM51.6211 129.305L52.5779 129.596L52.5789 129.592L51.6211 129.305ZM51.7578 128.924L51.5094 127.955L51.0287 128.078L50.8362 128.536L51.7578 128.924ZM55.4199 128.934H56.4199V128.127L55.6315 127.956L55.4199 128.934ZM55.4199 131.326H54.4199V132.326H55.4199V131.326ZM58.3496 131.326L59.1846 130.776L58.8882 130.326H58.3496V131.326ZM58.3496 135.379V136.379H58.8703L59.1688 135.952L58.3496 135.379ZM55.7129 135.379V134.379H54.7129V135.379H55.7129ZM57.1777 138.104L58.1416 137.837L57.9389 137.104H57.1777V138.104ZM56.5332 141.463L57.1803 142.225L57.1811 142.225L56.5332 141.463ZM51.5234 141.287L50.8352 142.013L50.843 142.02L51.5234 141.287ZM50.5762 136.828H51.1816V134.828H50.5762V136.828ZM51.1816 136.828C51.4227 136.828 51.7776 136.794 52.0987 136.582C52.4926 136.322 52.6699 135.909 52.6699 135.506H50.6699C50.6699 135.433 50.6843 135.32 50.7468 135.196C50.8112 135.068 50.9043 134.974 50.997 134.913C51.1554 134.808 51.2661 134.828 51.1816 134.828V136.828ZM52.6699 135.506C52.6699 135.351 52.6371 135.212 52.6205 135.146L50.6802 135.631C50.6824 135.64 50.681 135.635 50.6786 135.621C50.6774 135.614 50.6754 135.601 50.6737 135.583C50.672 135.566 50.6699 135.54 50.6699 135.506H52.6699ZM51.6504 134.389H49.4629V136.389H51.6504V134.389ZM50.4169 135.089C50.3089 134.745 50.248 134.34 50.248 133.865H48.248C48.248 134.51 48.3305 135.121 48.5089 135.688L50.4169 135.089ZM50.248 133.865C50.248 133.339 50.2884 132.967 50.3472 132.722L48.4028 132.254C48.2924 132.713 48.248 133.259 48.248 133.865H50.248ZM49.909 133.334C50.3114 133.08 50.8457 132.704 51.503 132.218L50.3134 130.61C49.6686 131.087 49.1808 131.428 48.841 131.643L49.909 133.334ZM51.8329 131.795C52.0344 131.305 52.2834 130.564 52.5778 129.596L50.6643 129.014C50.3729 129.972 50.1466 130.637 49.9835 131.033L51.8329 131.795ZM52.5789 129.592C52.6079 129.496 52.6414 129.402 52.6794 129.312L50.8362 128.536C50.7701 128.693 50.7125 128.853 50.6633 129.017L52.5789 129.592ZM52.0062 129.892C52.4161 129.787 52.9096 129.729 53.4961 129.729V127.729C52.7806 127.729 52.1152 127.8 51.5094 127.955L52.0062 129.892ZM53.4961 129.729C54.0765 129.729 54.6469 129.789 55.2083 129.911L55.6315 127.956C54.93 127.804 54.2177 127.729 53.4961 127.729V129.729ZM54.4199 128.934V131.326H56.4199V128.934H54.4199ZM55.4199 132.326H58.3496V130.326H55.4199V132.326ZM57.5147 131.876C57.7711 132.266 57.916 132.742 57.916 133.348H59.916C59.916 132.403 59.6833 131.533 59.1846 130.776L57.5147 131.876ZM57.916 133.348C57.916 133.606 57.8802 133.882 57.8025 134.177L59.7366 134.686C59.8541 134.239 59.916 133.793 59.916 133.348H57.916ZM57.8025 134.177C57.7288 134.457 57.6325 134.66 57.5304 134.805L59.1688 135.952C59.4313 135.577 59.6149 135.148 59.7366 134.686L57.8025 134.177ZM58.3496 134.379H55.7129V136.379H58.3496V134.379ZM54.7129 135.379V136.854H56.7129V135.379H54.7129ZM54.7129 136.854C54.7129 137.385 54.8202 137.97 55.2069 138.432C55.6222 138.929 56.2036 139.104 56.7578 139.104V137.104C56.6813 137.104 56.6594 137.092 56.6711 137.097C56.6888 137.104 56.7182 137.122 56.7414 137.15C56.7614 137.174 56.7542 137.178 56.7415 137.132C56.7281 137.084 56.7129 136.995 56.7129 136.854H54.7129ZM56.7578 139.104H57.1777V137.104H56.7578V139.104ZM56.2139 138.37C56.3355 138.81 56.3828 139.146 56.3828 139.393H58.3828C58.3828 138.91 58.2934 138.386 58.1416 137.837L56.2139 138.37ZM56.3828 139.393C56.3828 140.065 56.1819 140.449 55.8853 140.701L57.1811 142.225C58.0173 141.513 58.3828 140.517 58.3828 139.393H56.3828ZM55.8861 140.701C55.5744 140.965 55.0261 141.176 54.082 141.176V143.176C55.2864 143.176 56.3722 142.911 57.1803 142.225L55.8861 140.701ZM54.082 141.176C53.2067 141.176 52.6172 140.938 52.2039 140.554L50.843 142.02C51.7057 142.821 52.8219 143.176 54.082 143.176V141.176ZM52.2116 140.562C51.8388 140.208 51.5762 139.63 51.5762 138.65H49.5762C49.5762 139.989 49.945 141.168 50.8353 142.013L52.2116 140.562ZM51.5762 138.65V135.828H49.5762V138.65H51.5762ZM58.9258 141.707L59.4438 140.852L59.4324 140.845L59.4207 140.838L58.9258 141.707ZM58.1543 135.379H59.1543V135.06L58.9694 134.8L58.1543 135.379ZM58.1543 131.326V130.326H57.6174L57.3208 130.774L58.1543 131.326ZM61.2988 132.068L62.0448 132.734L62.5616 132.156L62.1292 131.511L61.2988 132.068ZM60.7715 133.631L60.0644 134.338L60.083 134.357L60.1025 134.374L60.7715 133.631ZM61.0449 133.719V134.719H61.8243L62.0147 133.963L61.0449 133.719ZM62.3438 131.727L62.8965 132.56L62.9055 132.554L62.3438 131.727ZM66.5625 131.805L67.4988 131.454L67.3962 131.18L67.1625 131.005L66.5625 131.805ZM66.4062 135.76L66.8741 136.644L67.1615 136.491L67.3045 136.199L66.4062 135.76ZM65.4883 136.062L65.6844 137.043L65.6922 137.042L65.7 137.04L65.4883 136.062ZM63.2324 136.102L63.0481 137.084L63.0597 137.087L63.0713 137.088L63.2324 136.102ZM62.5488 135.945L62.852 134.992L62.2721 134.808L61.8417 135.238L62.5488 135.945ZM62.6562 136.395L62.2682 137.316L62.2967 137.328L62.3259 137.338L62.6562 136.395ZM63.3008 136.551H64.3008V135.727L63.4928 135.569L63.3008 136.551ZM63.3008 141.453L63.8356 142.298L64.3008 142.004V141.453H63.3008ZM60.7812 141.127C60.1142 141.127 59.6962 141.005 59.4438 140.852L58.4077 142.562C59.0798 142.969 59.8988 143.127 60.7812 143.127V141.127ZM59.4207 140.838C59.2058 140.716 59.1543 140.607 59.1543 140.408H57.1543C57.1543 141.355 57.6171 142.112 58.4308 142.576L59.4207 140.838ZM59.1543 140.408V135.379H57.1543V140.408H59.1543ZM58.9694 134.8C58.7268 134.458 58.5781 134.007 58.5781 133.387H56.5781C56.5781 134.342 56.8135 135.219 57.3392 135.958L58.9694 134.8ZM58.5781 133.387C58.5781 132.76 58.7272 132.272 58.9878 131.879L57.3208 130.774C56.8132 131.539 56.5781 132.425 56.5781 133.387H58.5781ZM58.1543 132.326H59.6484V130.326H58.1543V132.326ZM59.6484 132.326C60.1914 132.326 60.3752 132.487 60.4685 132.626L62.1292 131.511C61.5584 130.661 60.642 130.326 59.6484 130.326V132.326ZM60.5529 131.402C60.3056 131.679 60.1102 132.005 59.9545 132.358L61.7838 133.166C61.8755 132.958 61.9666 132.822 62.0448 132.734L60.5529 131.402ZM59.9545 132.358C59.834 132.63 59.6836 133.008 59.6836 133.367H61.6836C61.6836 133.416 61.6779 133.445 61.6776 133.446C61.677 133.45 61.6786 133.441 61.6861 133.416C61.7015 133.366 61.7315 133.284 61.7838 133.166L59.9545 132.358ZM59.6836 133.367C59.6836 133.639 59.7521 134.026 60.0644 134.338L61.4786 132.924C61.6737 133.119 61.6836 133.33 61.6836 133.367H59.6836ZM60.1025 134.374C60.4058 134.647 60.7655 134.719 61.0449 134.719V132.719C61.09 132.719 61.2674 132.732 61.4404 132.888L60.1025 134.374ZM62.0147 133.963C62.1957 133.244 62.5092 132.817 62.8965 132.56L61.791 130.893C60.9023 131.483 60.3499 132.384 60.0752 133.475L62.0147 133.963ZM62.9055 132.554C63.2343 132.331 63.6788 132.189 64.2969 132.189V130.189C63.3655 130.189 62.5079 130.406 61.782 130.899L62.9055 132.554ZM64.2969 132.189C65.1303 132.189 65.6469 132.368 65.9625 132.605L67.1625 131.005C66.3843 130.421 65.3905 130.189 64.2969 130.189V132.189ZM65.6262 132.156C65.7673 132.532 65.8555 133.043 65.8555 133.719H67.8555C67.8555 132.884 67.7483 132.119 67.4988 131.454L65.6262 132.156ZM65.8555 133.719C65.8555 134.33 65.7341 134.858 65.508 135.32L67.3045 136.199C67.6773 135.437 67.8555 134.605 67.8555 133.719H65.8555ZM65.9384 134.876C65.831 134.933 65.6242 135.01 65.2765 135.085L65.7 137.04C66.1336 136.946 66.5388 136.821 66.8741 136.644L65.9384 134.876ZM65.2922 135.082C64.9659 135.147 64.6377 135.18 64.3066 135.18V137.18C64.7698 137.18 65.2294 137.134 65.6844 137.043L65.2922 135.082ZM64.3066 135.18C63.9518 135.18 63.6489 135.156 63.3936 135.115L63.0713 137.088C63.454 137.151 63.8672 137.18 64.3066 137.18V135.18ZM63.4167 135.119C63.1104 135.061 62.9333 135.018 62.852 134.992L62.2456 136.898C62.4508 136.964 62.7295 137.025 63.0481 137.084L63.4167 135.119ZM61.8417 135.238C61.5471 135.533 61.4707 135.897 61.4707 136.17H63.4707C63.4707 136.248 63.4464 136.462 63.2559 136.652L61.8417 135.238ZM61.4707 136.17C61.4707 136.823 61.9393 137.178 62.2682 137.316L63.0443 135.473C63.0774 135.487 63.1845 135.537 63.2881 135.662C63.4061 135.805 63.4707 135.988 63.4707 136.17H61.4707ZM62.3259 137.338C62.529 137.409 62.8046 137.473 63.1088 137.532L63.4928 135.569C63.198 135.512 63.0439 135.471 62.9866 135.451L62.3259 137.338ZM62.3008 136.551V141.453H64.3008V136.551H62.3008ZM62.7659 140.608C62.2399 140.941 61.5919 141.127 60.7812 141.127V143.127C61.9107 143.127 62.9424 142.863 63.8356 142.298L62.7659 140.608ZM72.2754 138.27H71.2754V138.684L71.5683 138.977L72.2754 138.27ZM72.7148 135.223L71.7447 135.465L71.7466 135.473L72.7148 135.223ZM72.1875 135.008L71.4804 134.301L71.1492 134.632L71.1916 135.098L72.1875 135.008ZM68.623 140.887L69.3205 140.17L69.3169 140.167L68.623 140.887ZM68.5254 132.537L67.8138 131.835L67.8137 131.835L68.5254 132.537ZM76.4551 132.596L77.182 131.909L77.1797 131.907L76.4551 132.596ZM76.5039 140.799L75.7852 140.103L75.7829 140.106L76.5039 140.799ZM71.2754 136.561V138.27H73.2754V136.561H71.2754ZM71.5683 138.977C71.8888 139.297 72.2872 139.338 72.5 139.338V137.338C72.5161 137.338 72.5746 137.339 72.6569 137.364C72.7431 137.39 72.8669 137.447 72.9825 137.562L71.5683 138.977ZM72.5 139.338C72.8567 139.338 73.2958 139.195 73.5683 138.767L71.8809 137.694C71.9562 137.575 72.0674 137.474 72.2028 137.409C72.3299 137.348 72.4398 137.338 72.5 137.338V139.338ZM73.5683 138.767C73.7782 138.438 73.793 138.061 73.793 137.859H71.793C71.793 137.908 71.7894 137.919 71.7924 137.903C71.7941 137.893 71.799 137.87 71.8107 137.837C71.8222 137.804 71.8433 137.753 71.8809 137.694L73.5683 138.767ZM73.793 137.859V136.463H71.793V137.859H73.793ZM73.793 136.463C73.793 135.86 73.7722 135.318 73.6831 134.973L71.7466 135.473C71.7453 135.468 71.7502 135.486 71.757 135.54C71.7634 135.59 71.7698 135.658 71.7754 135.747C71.7866 135.925 71.793 136.162 71.793 136.463H73.793ZM73.685 134.98C73.6368 134.788 73.5416 134.528 73.3321 134.304C73.0935 134.05 72.7689 133.91 72.4219 133.91V135.91C72.3338 135.91 72.2301 135.893 72.1238 135.848C72.0175 135.802 71.9339 135.737 71.873 135.672C71.8144 135.61 71.7818 135.552 71.7654 135.518C71.757 135.5 71.7518 135.487 71.7488 135.478C71.7473 135.474 71.7463 135.471 71.7456 135.468C71.745 135.466 71.7447 135.465 71.7447 135.465L73.685 134.98ZM72.4219 133.91C72.0625 133.91 71.7309 134.05 71.4804 134.301L72.8946 135.715C72.843 135.767 72.7713 135.819 72.6795 135.858C72.5876 135.896 72.4981 135.91 72.4219 135.91V133.91ZM71.1916 135.098C71.249 135.73 71.2754 136.213 71.2754 136.561H73.2754C73.2754 136.127 73.2432 135.575 73.1834 134.917L71.1916 135.098ZM69.3169 140.167C68.4809 139.361 68.0215 138.248 68.0215 136.707H66.0215C66.0215 138.682 66.6298 140.355 67.9292 141.607L69.3169 140.167ZM68.0215 136.707C68.0215 135.14 68.4607 134.026 69.237 133.24L67.8137 131.835C66.5848 133.079 66.0215 134.745 66.0215 136.707H68.0215ZM69.237 133.24C70.0318 132.435 71.0834 132.004 72.4902 132.004V130.004C70.6288 130.004 69.0372 130.595 67.8138 131.835L69.237 133.24ZM72.4902 132.004C73.8854 132.004 74.9329 132.446 75.7304 133.285L77.1797 131.907C75.959 130.623 74.3633 130.004 72.4902 130.004V132.004ZM75.7282 133.282C76.5262 134.127 76.959 135.25 76.959 136.746H78.959C78.959 134.831 78.3892 133.187 77.182 131.909L75.7282 133.282ZM76.959 136.746C76.959 138.246 76.537 139.326 75.7852 140.103L77.2226 141.494C78.4109 140.266 78.959 138.645 78.959 136.746H76.959ZM75.7829 140.106C75.044 140.875 74.0133 141.303 72.5684 141.303V143.303C74.4437 143.303 76.0367 142.728 77.2249 141.492L75.7829 140.106ZM72.5684 141.303C71.1063 141.303 70.0634 140.893 69.3205 140.17L67.9256 141.603C69.1228 142.768 70.7101 143.303 72.5684 143.303V141.303ZM88.9355 137.166L87.9357 137.151L87.9355 137.159V137.166H88.9355ZM89.6387 138.973L90.6193 138.777L90.5346 138.353L90.1687 138.125L89.6387 138.973ZM88.8672 141.434L89.5605 142.154L89.5607 142.154L88.8672 141.434ZM84.8828 141.482L85.556 140.743L85.5477 140.735L84.8828 141.482ZM84.0527 137.879L83.061 137.75L83.06 137.758L83.0591 137.766L84.0527 137.879ZM84.1406 137.127L83.149 136.998L83.1462 137.019L83.1444 137.04L84.1406 137.127ZM84.1211 135.584L83.2592 136.091L83.27 136.109L83.2815 136.127L84.1211 135.584ZM83.5254 135.496L83.0293 134.628L82.4781 134.943L82.5286 135.576L83.5254 135.496ZM83.6523 137.088L84.6368 137.263L84.6594 137.137L84.6492 137.008L83.6523 137.088ZM83.9746 141.189L84.6923 141.886L85.2064 141.356L84.8514 140.709L83.9746 141.189ZM79.5801 141.658L80.1624 140.845L80.1523 140.838L79.5801 141.658ZM78.7402 135.379H79.7402V135.06L79.5553 134.8L78.7402 135.379ZM78.7402 131.326V130.326H78.2034L77.9067 130.774L78.7402 131.326ZM81.6602 131.844L82.3419 132.575L83.078 131.889L82.3875 131.158L81.6602 131.844ZM81.5723 132.811V133.811H82.1488L82.4377 133.312L81.5723 132.811ZM82.8809 131.58L82.3993 130.704L82.3952 130.706L82.8809 131.58ZM87.6367 131.922L87.0183 132.708L87.0184 132.708L87.6367 131.922ZM88.9648 135.164L89.9647 135.179L89.9648 135.171V135.164H88.9648ZM87.9355 137.166C87.9355 137.695 87.9926 138.202 88.152 138.641L90.0316 137.957C89.9827 137.823 89.9355 137.574 89.9355 137.166H87.9355ZM88.152 138.641C88.3331 139.138 88.6605 139.541 89.1087 139.821L90.1687 138.125C90.096 138.079 90.0589 138.032 90.0316 137.957L88.152 138.641ZM88.6581 139.169C88.6546 139.151 88.6524 139.137 88.651 139.128C88.6496 139.118 88.6487 139.11 88.6483 139.105C88.6477 139.101 88.6475 139.097 88.6474 139.096C88.6473 139.095 88.6473 139.095 88.6474 139.096C88.6475 139.099 88.6478 139.106 88.6481 139.117C88.6483 139.127 88.6484 139.141 88.6484 139.158H90.6484C90.6484 139.077 90.648 138.92 90.6193 138.777L88.6581 139.169ZM88.6484 139.158V139.334H90.6484V139.158H88.6484ZM88.6484 139.334C88.6484 140.031 88.4533 140.444 88.1737 140.713L89.5607 142.154C90.3228 141.421 90.6484 140.434 90.6484 139.334H88.6484ZM88.1739 140.713C87.8739 141.002 87.4687 141.176 86.8652 141.176V143.176C87.9024 143.176 88.8319 142.855 89.5605 142.154L88.1739 140.713ZM86.8652 141.176C86.2516 141.176 85.8465 141.007 85.556 140.743L84.2097 142.222C84.9348 142.882 85.8513 143.176 86.8652 143.176V141.176ZM85.5477 140.735C85.2364 140.458 84.9941 139.975 84.9941 139.08H82.9941C82.9941 140.334 83.3443 141.452 84.2179 142.229L85.5477 140.735ZM84.9941 139.08C84.9941 138.651 85.0126 138.29 85.0464 137.991L83.0591 137.766C83.0147 138.158 82.9941 138.598 82.9941 139.08H84.9941ZM85.0444 138.007C85.0901 137.656 85.1218 137.386 85.1369 137.214L83.1444 137.04C83.1334 137.167 83.1066 137.399 83.061 137.75L85.0444 138.007ZM85.1322 137.256C85.151 137.112 85.1697 136.978 85.1882 136.855L83.2103 136.559C83.1897 136.696 83.1693 136.842 83.149 136.998L85.1322 137.256ZM85.1882 136.855C85.219 136.65 85.2285 136.398 85.2285 136.131H83.2285C83.2285 136.372 83.2185 136.504 83.2103 136.559L85.1882 136.855ZM85.2285 136.131C85.2285 135.834 85.1962 135.405 84.9607 135.041L83.2815 136.127C83.2525 136.082 83.2369 136.046 83.2292 136.025C83.2215 136.004 83.2197 135.993 83.2204 135.996C83.221 136 83.2232 136.012 83.2252 136.036C83.2271 136.059 83.2285 136.09 83.2285 136.131H85.2285ZM84.983 135.077C84.7466 134.675 84.3322 134.418 83.8379 134.418V136.418C83.7456 136.418 83.6211 136.396 83.4957 136.322C83.3721 136.25 83.298 136.157 83.2592 136.091L84.983 135.077ZM83.8379 134.418C83.5674 134.418 83.2885 134.48 83.0293 134.628L84.0215 136.364C83.9446 136.408 83.874 136.418 83.8379 136.418V134.418ZM82.5286 135.576L82.6555 137.167L84.6492 137.008L84.5222 135.417L82.5286 135.576ZM82.6679 136.912C82.5394 137.633 82.4766 138.389 82.4766 139.178H84.4766C84.4766 138.495 84.5309 137.857 84.6368 137.263L82.6679 136.912ZM82.4766 139.178C82.4766 140.07 82.6797 140.908 83.0978 141.67L84.8514 140.709C84.6055 140.26 84.4766 139.757 84.4766 139.178H82.4766ZM83.2569 140.493C82.8531 140.909 82.2448 141.176 81.2891 141.176V143.176C82.638 143.176 83.8201 142.785 84.6923 141.886L83.2569 140.493ZM81.2891 141.176C80.8164 141.176 80.4558 141.055 80.1624 140.845L78.9978 142.471C79.6679 142.951 80.4466 143.176 81.2891 143.176V141.176ZM80.1523 140.838C79.8417 140.621 79.7402 140.401 79.7402 140.105H77.7402C77.7402 141.099 78.1987 141.914 79.0079 142.478L80.1523 140.838ZM79.7402 140.105V135.379H77.7402V140.105H79.7402ZM79.5553 134.8C79.3128 134.458 79.1641 134.007 79.1641 133.387H77.1641C77.1641 134.342 77.3995 135.219 77.9252 135.958L79.5553 134.8ZM79.1641 133.387C79.1641 132.76 79.3131 132.272 79.5737 131.879L77.9067 130.774C77.3991 131.539 77.1641 132.425 77.1641 133.387H79.1641ZM78.7402 132.326H80.4785V130.326H78.7402V132.326ZM80.4785 132.326C80.6574 132.326 80.7906 132.379 80.9328 132.53L82.3875 131.158C81.8787 130.618 81.2241 130.326 80.4785 130.326V132.326ZM80.9784 131.112C80.8011 131.277 80.6305 131.462 80.4983 131.667C80.371 131.864 80.2305 132.153 80.2305 132.508H82.2305C82.2305 132.6 82.2117 132.669 82.198 132.707C82.1846 132.744 82.1733 132.76 82.1775 132.753C82.1813 132.747 82.1945 132.728 82.2229 132.696C82.2509 132.664 82.2897 132.624 82.3419 132.575L80.9784 131.112ZM80.2305 132.508C80.2305 132.796 80.3175 133.186 80.6529 133.483C80.9651 133.76 81.332 133.811 81.5723 133.811V131.811C81.5846 131.811 81.7807 131.811 81.979 131.986C82.2004 132.182 82.2305 132.421 82.2305 132.508H80.2305ZM82.4377 133.312C82.619 132.998 82.911 132.707 83.3665 132.454L82.3952 130.706C81.6788 131.104 81.0984 131.633 80.7068 132.31L82.4377 133.312ZM83.3624 132.456C83.7919 132.221 84.2938 132.092 84.8926 132.092V130.092C83.994 130.092 83.1547 130.289 82.3993 130.704L83.3624 132.456ZM84.8926 132.092C85.8537 132.092 86.5329 132.326 87.0183 132.708L88.2552 131.136C87.3343 130.411 86.1841 130.092 84.8926 130.092V132.092ZM87.0184 132.708C87.5939 133.161 87.9648 133.906 87.9648 135.164H89.9648C89.9648 133.492 89.4503 132.076 88.2551 131.136L87.0184 132.708ZM87.965 135.149L87.9357 137.151L89.9354 137.181L89.9647 135.179L87.965 135.149ZM94.9609 135.945H93.9609V136.399L94.3024 136.698L94.9609 135.945ZM94.7656 138.865L94.9617 137.885L94.0961 137.712L93.8169 138.549L94.7656 138.865ZM95.0391 139.324L94.7892 140.292L94.8072 140.297L94.8254 140.301L95.0391 139.324ZM98.4277 138.943L98.6787 137.975L98.3527 137.891L98.0419 138.021L98.4277 138.943ZM100.068 140.135L100.912 139.598L100.911 139.597L100.068 140.135ZM99.0137 144.715L98.4651 143.879L99.0137 144.715ZM91.3281 144.861L91.8742 144.024L91.8672 144.019L91.3281 144.861ZM90.332 141.912L91.2225 142.367L91.2265 142.359L90.332 141.912ZM90.8496 141.297L91.4928 140.531L90.9609 140.084L90.3566 140.427L90.8496 141.297ZM92.2852 141.961L92.0263 142.927L92.0287 142.927L92.2852 141.961ZM95.5371 142.137L95.2794 141.17L95.2712 141.173L95.5371 142.137ZM95.7715 141.668L96.629 141.153L96.259 140.537L95.5566 140.691L95.7715 141.668ZM91.5918 141.238L92.039 140.344L92.0336 140.341L91.5918 141.238ZM90.4883 138.357L91.3908 138.788L91.3945 138.78L90.4883 138.357ZM91.0938 137.703L91.5666 138.584L93.0946 137.764L91.6196 136.853L91.0938 137.703ZM90.1758 136.697L89.2998 137.18L89.3052 137.189L90.1758 136.697ZM96.9531 131.355L96.6151 132.297L97.9531 132.777V131.355H96.9531ZM96.9531 130.672L96.5899 129.74L95.9531 129.988V130.672H96.9531ZM99.9316 130.77L99.3884 131.609L99.3895 131.61L99.9316 130.77ZM100.42 133.025L99.4769 132.693L99.4725 132.705L99.4685 132.718L100.42 133.025ZM100.098 133.719L99.2381 133.208L98.9875 133.629L99.1672 134.085L100.098 133.719ZM99.1211 138.006L99.7342 138.796L99.735 138.795L99.1211 138.006ZM96.4688 134.998C96.4688 134.785 96.4338 134.442 96.2028 134.134C95.9313 133.772 95.537 133.646 95.2051 133.646V135.646C95.139 135.646 95.0339 135.635 94.9143 135.582C94.7889 135.527 94.6816 135.439 94.6028 135.334C94.5283 135.235 94.496 135.142 94.4821 135.087C94.4685 135.032 94.4688 134.999 94.4688 134.998H96.4688ZM95.2051 133.646C94.9168 133.646 94.5353 133.742 94.2538 134.08C94.0013 134.382 93.9609 134.728 93.9609 134.939H95.9609C95.9609 134.956 95.9613 135.155 95.7902 135.36C95.59 135.6 95.3306 135.646 95.2051 135.646V133.646ZM93.9609 134.939V135.945H95.9609V134.939H93.9609ZM94.3024 136.698C94.6096 136.967 94.9674 137.014 95.1953 137.014V135.014C95.2149 135.014 95.4164 135.015 95.6194 135.193L94.3024 136.698ZM95.1953 137.014C95.3695 137.014 95.5881 136.981 95.806 136.862C96.034 136.738 96.2006 136.552 96.3046 136.344L94.5157 135.449C94.5807 135.319 94.6919 135.192 94.8483 135.106C94.9945 135.027 95.1253 135.014 95.1953 135.014V137.014ZM96.3046 136.344C96.46 136.033 96.4688 135.672 96.4688 135.467H94.4688C94.4688 135.504 94.4679 135.533 94.4666 135.555C94.4654 135.578 94.4639 135.591 94.4633 135.595C94.4626 135.6 94.4636 135.591 94.4691 135.57C94.472 135.559 94.4766 135.543 94.4836 135.524C94.4906 135.504 94.5009 135.479 94.5157 135.449L96.3046 136.344ZM96.4688 135.467V134.998H94.4688V135.467H96.4688ZM95.8301 137.953C95.4556 137.953 95.1705 137.926 94.9617 137.885L94.5695 139.846C94.9467 139.921 95.3712 139.953 95.8301 139.953V137.953ZM93.8169 138.549C93.7696 138.691 93.7363 138.854 93.7363 139.031H95.7363C95.7363 139.104 95.7226 139.157 95.7143 139.181L93.8169 138.549ZM93.7363 139.031C93.7363 139.368 93.8671 139.689 94.1166 139.931C94.3374 140.144 94.596 140.243 94.7892 140.292L95.2889 138.356C95.2904 138.356 95.3136 138.362 95.35 138.38C95.3867 138.398 95.4451 138.433 95.5074 138.493C95.5721 138.556 95.634 138.64 95.6776 138.744C95.721 138.847 95.7363 138.947 95.7363 139.031H93.7363ZM94.8254 140.301C95.1292 140.368 95.4709 140.393 95.8301 140.393V138.393C95.5513 138.393 95.3656 138.372 95.2528 138.347L94.8254 140.301ZM95.8301 140.393C96.9393 140.393 97.9438 140.23 98.8135 139.866L98.0419 138.021C97.4794 138.256 96.7521 138.393 95.8301 138.393V140.393ZM98.1768 139.911C98.6355 140.03 98.9708 140.274 99.2254 140.673L100.911 139.597C100.385 138.772 99.6262 138.221 98.6787 137.975L98.1768 139.911ZM99.2247 140.672C99.4279 140.991 99.5469 141.388 99.5469 141.902H101.547C101.547 141.062 101.347 140.281 100.912 139.598L99.2247 140.672ZM99.5469 141.902C99.5469 142.764 99.2106 143.39 98.4651 143.879L99.5622 145.551C100.861 144.699 101.547 143.45 101.547 141.902H99.5469ZM98.4651 143.879C97.6507 144.413 96.5396 144.721 95.0586 144.721V146.721C96.8067 146.721 98.3324 146.358 99.5622 145.551L98.4651 143.879ZM95.0586 144.721C93.5485 144.721 92.5256 144.448 91.8742 144.024L90.782 145.699C91.8884 146.42 93.3525 146.721 95.0586 146.721V144.721ZM91.8672 144.019C91.287 143.648 91.1074 143.263 91.1074 142.83H89.1074C89.1074 144.063 89.7417 145.033 90.7891 145.704L91.8672 144.019ZM91.1074 142.83C91.1074 142.674 91.1424 142.524 91.2225 142.367L89.4416 141.457C89.2222 141.886 89.1074 142.348 89.1074 142.83H91.1074ZM91.2265 142.359C91.2745 142.263 91.3141 142.207 91.339 142.177C91.3631 142.149 91.3663 142.153 91.3426 142.167L90.3566 140.427C89.9229 140.673 89.6351 141.07 89.4376 141.465L91.2265 142.359ZM90.2064 142.063C90.6878 142.467 91.3221 142.738 92.0263 142.927L92.5441 140.995C91.9852 140.845 91.6625 140.674 91.4928 140.531L90.2064 142.063ZM92.0287 142.927C92.7517 143.119 93.4923 143.215 94.248 143.215V141.215C93.6627 141.215 93.0946 141.141 92.5416 140.994L92.0287 142.927ZM94.248 143.215C94.5937 143.215 94.8909 143.208 95.1337 143.193C95.3558 143.18 95.6004 143.157 95.803 143.101L95.2712 141.173C95.285 141.169 95.2204 141.185 95.0127 141.197C94.8259 141.208 94.5729 141.215 94.248 141.215V143.215ZM95.7948 143.103C95.9765 143.055 96.2242 142.961 96.4392 142.76C96.6847 142.531 96.8301 142.214 96.8301 141.863H94.8301C94.8301 141.768 94.8488 141.659 94.8968 141.55C94.9447 141.442 95.0104 141.358 95.0745 141.298C95.1363 141.241 95.1927 141.208 95.2261 141.192C95.2434 141.183 95.2569 141.178 95.2655 141.175C95.2741 141.172 95.279 141.171 95.2794 141.17L95.7948 143.103ZM96.8301 141.863C96.8301 141.589 96.7456 141.348 96.629 141.153L94.914 142.182C94.8755 142.118 94.8301 142.008 94.8301 141.863H96.8301ZM95.5566 140.691C95.326 140.742 94.9969 140.775 94.5508 140.775V142.775C95.0812 142.775 95.5659 142.737 95.9863 142.645L95.5566 140.691ZM94.5508 140.775C93.37 140.775 92.5594 140.604 92.039 140.344L91.1446 142.133C92.0565 142.589 93.2185 142.775 94.5508 142.775V140.775ZM92.0336 140.341C91.716 140.185 91.5393 140.019 91.4398 139.872C91.3448 139.731 91.2832 139.551 91.2832 139.295H89.2832C89.2832 139.904 89.4397 140.482 89.7809 140.989C90.1176 141.489 90.5952 141.862 91.1499 142.135L92.0336 140.341ZM91.2832 139.295C91.2832 139.095 91.3225 138.931 91.3908 138.788L89.5858 137.927C89.3807 138.357 89.2832 138.817 89.2832 139.295H91.2832ZM91.3945 138.78C91.4465 138.669 91.5029 138.618 91.5666 138.584L90.6209 136.822C90.1507 137.074 89.8035 137.46 89.5821 137.935L91.3945 138.78ZM91.6196 136.853C91.4337 136.738 91.2359 136.541 91.0463 136.205L89.3052 137.189C89.6235 137.752 90.0376 138.226 90.5679 138.554L91.6196 136.853ZM91.0517 136.215C90.9055 135.949 90.8047 135.572 90.8047 135.037H88.8047C88.8047 135.817 88.9513 136.547 89.2998 137.18L91.0517 136.215ZM90.8047 135.037C90.8047 134.077 91.1451 133.391 91.8214 132.87L90.6004 131.286C89.4018 132.21 88.8047 133.497 88.8047 135.037H90.8047ZM91.8214 132.87C92.5422 132.315 93.5274 131.994 94.8633 131.994V129.994C93.2044 129.994 91.7547 130.396 90.6004 131.286L91.8214 132.87ZM94.8633 131.994C95.4724 131.994 96.0545 132.095 96.6151 132.297L97.2912 130.414C96.5106 130.134 95.6995 129.994 94.8633 129.994V131.994ZM97.9531 131.355V130.672H95.9531V131.355H97.9531ZM97.3163 131.604C97.54 131.516 97.9102 131.447 98.4766 131.447V129.447C97.78 129.447 97.1345 129.528 96.5899 129.74L97.3163 131.604ZM98.4766 131.447C99.0292 131.447 99.2894 131.545 99.3884 131.609L100.475 129.93C99.9098 129.564 99.2 129.447 98.4766 129.447V131.447ZM99.3895 131.61C99.4082 131.622 99.5371 131.69 99.5371 132.146H101.537C101.537 131.288 101.262 130.438 100.474 129.929L99.3895 131.61ZM99.5371 132.146C99.5371 132.453 99.5024 132.62 99.4769 132.693L101.363 133.358C101.494 132.988 101.537 132.569 101.537 132.146H99.5371ZM99.4685 132.718C99.4239 132.855 99.3507 133.018 99.2381 133.208L100.957 134.23C101.131 133.937 101.273 133.638 101.371 133.333L99.4685 132.718ZM99.1672 134.085C99.2766 134.363 99.3516 134.763 99.3516 135.32H101.352C101.352 134.601 101.257 133.934 101.028 133.352L99.1672 134.085ZM99.3516 135.32C99.3516 136.202 99.0551 136.79 98.5072 137.217L99.735 138.795C100.828 137.945 101.352 136.743 101.352 135.32H99.3516ZM98.508 137.216C97.9209 137.671 97.0634 137.953 95.8301 137.953V139.953C97.3572 139.953 98.6937 139.603 99.7342 138.796L98.508 137.216Z" fill="#22FBFD" mask="url(#path-3-outside-1_544_16)"/>
<path d="M27.4766 102.492C27.4714 102.503 27.4661 102.521 27.4609 102.547C27.4557 102.573 27.4531 102.599 27.4531 102.625C27.4531 102.734 27.5312 102.81 27.6875 102.852C27.849 102.893 28.0625 102.914 28.3281 102.914C28.7135 102.914 29.0911 102.883 29.4609 102.82C29.8307 102.753 30.1458 102.664 30.4062 102.555C30.7188 102.638 30.9818 102.766 31.1953 102.938C31.4089 103.104 31.5833 103.294 31.7188 103.508C31.8542 103.721 31.9505 103.951 32.0078 104.195C32.0703 104.44 32.1016 104.682 32.1016 104.922C32.1016 105.417 31.9922 105.854 31.7734 106.234C31.5547 106.615 31.2474 106.932 30.8516 107.188C30.4609 107.448 29.9922 107.643 29.4453 107.773C28.8984 107.909 28.2995 107.977 27.6484 107.977C26.9974 107.977 26.4271 107.914 25.9375 107.789C25.4531 107.669 25.0469 107.503 24.7188 107.289C24.3958 107.081 24.1536 106.836 23.9922 106.555C23.8307 106.279 23.75 105.982 23.75 105.664C23.75 105.523 23.7656 105.388 23.7969 105.258C23.8333 105.133 23.8776 105.016 23.9297 104.906C23.987 104.797 24.0495 104.703 24.1172 104.625C24.1901 104.542 24.2656 104.479 24.3438 104.438C24.5885 104.646 24.9609 104.82 25.4609 104.961C25.9609 105.102 26.5677 105.172 27.2812 105.172C27.6771 105.172 27.9505 105.151 28.1016 105.109C28.2526 105.073 28.3281 105 28.3281 104.891C28.3281 104.854 28.3229 104.826 28.3125 104.805C28.3021 104.779 28.2917 104.755 28.2812 104.734C28.1562 104.76 28 104.781 27.8125 104.797C27.625 104.812 27.4557 104.82 27.3047 104.82C26.862 104.82 26.4349 104.789 26.0234 104.727C25.612 104.659 25.2474 104.547 24.9297 104.391C24.6172 104.234 24.3646 104.031 24.1719 103.781C23.9844 103.526 23.8906 103.211 23.8906 102.836C23.8906 102.581 23.9427 102.336 24.0469 102.102C24.151 101.862 24.3151 101.682 24.5391 101.562C24.4193 101.49 24.2969 101.393 24.1719 101.273C24.0521 101.148 23.9427 100.997 23.8438 100.82C23.7448 100.643 23.6641 100.44 23.6016 100.211C23.5391 99.9818 23.5078 99.7214 23.5078 99.4297C23.5078 98.9193 23.6094 98.4635 23.8125 98.0625C24.0156 97.6615 24.2969 97.3229 24.6562 97.0469C25.0156 96.7708 25.4427 96.5599 25.9375 96.4141C26.4323 96.2682 26.9714 96.1953 27.5547 96.1953C27.888 96.1953 28.1979 96.2266 28.4844 96.2891C28.7708 96.3464 29.0182 96.4115 29.2266 96.4844V95.9375C29.3464 95.8906 29.5078 95.849 29.7109 95.8125C29.9193 95.776 30.1458 95.7578 30.3906 95.7578C30.6354 95.7578 30.862 95.776 31.0703 95.8125C31.2786 95.849 31.4583 95.9167 31.6094 96.0156C31.7604 96.1146 31.8776 96.2526 31.9609 96.4297C32.0495 96.6068 32.0938 96.8359 32.0938 97.1172C32.0938 97.2474 32.0859 97.375 32.0703 97.5C32.0547 97.6198 32.026 97.7396 31.9844 97.8594C31.9271 98.0312 31.8464 98.2031 31.7422 98.375C31.8099 98.5417 31.8594 98.724 31.8906 98.9219C31.9271 99.1198 31.9453 99.3646 31.9453 99.6562C31.9453 100.13 31.8568 100.549 31.6797 100.914C31.5026 101.273 31.2552 101.576 30.9375 101.82C30.6198 102.065 30.2396 102.25 29.7969 102.375C29.3542 102.5 28.8646 102.562 28.3281 102.562C28.1615 102.562 27.9974 102.555 27.8359 102.539C27.6745 102.523 27.5547 102.508 27.4766 102.492ZM28.0391 99.3984C28.0391 99.3099 28.0208 99.2422 27.9844 99.1953C27.9531 99.1432 27.901 99.1172 27.8281 99.1172C27.776 99.1172 27.7292 99.1354 27.6875 99.1719C27.651 99.2031 27.6328 99.263 27.6328 99.3516V100.156C27.6797 100.193 27.7318 100.211 27.7891 100.211C27.9036 100.211 27.974 100.177 28 100.109C28.026 100.036 28.0391 99.9245 28.0391 99.7734V99.3984ZM36.8281 99.9531C36.9583 99.9531 37.0547 99.9271 37.1172 99.875C37.1849 99.8177 37.2188 99.7448 37.2188 99.6562C37.2188 99.5521 37.1797 99.4792 37.1016 99.4375C37.0286 99.3958 36.9401 99.375 36.8359 99.375C36.6901 99.375 36.5729 99.4167 36.4844 99.5C36.401 99.5781 36.349 99.6849 36.3281 99.8203C36.3802 99.8516 36.4479 99.8828 36.5312 99.9141C36.6146 99.9401 36.7135 99.9531 36.8281 99.9531ZM36.9297 105.242C36.2161 105.242 35.5703 105.141 34.9922 104.938C34.4141 104.729 33.9193 104.432 33.5078 104.047C33.1016 103.656 32.7865 103.182 32.5625 102.625C32.3438 102.068 32.2344 101.44 32.2344 100.742C32.2344 100.008 32.3516 99.3594 32.5859 98.7969C32.8255 98.2344 33.1458 97.763 33.5469 97.3828C33.9531 97.0026 34.4245 96.7161 34.9609 96.5234C35.4974 96.3307 36.0625 96.2344 36.6562 96.2344C37.2865 96.2344 37.8542 96.3281 38.3594 96.5156C38.8646 96.6979 39.2943 96.9505 39.6484 97.2734C40.0078 97.5964 40.2839 97.974 40.4766 98.4062C40.6693 98.8385 40.7656 99.2995 40.7656 99.7891C40.7656 100.253 40.6823 100.651 40.5156 100.984C40.3542 101.318 40.1276 101.594 39.8359 101.812C39.5443 102.026 39.1979 102.185 38.7969 102.289C38.3958 102.393 37.9609 102.445 37.4922 102.445C37.138 102.445 36.7943 102.404 36.4609 102.32C36.1328 102.237 35.8516 102.125 35.6172 101.984C35.5911 102.005 35.5729 102.034 35.5625 102.07C35.5573 102.102 35.5547 102.13 35.5547 102.156C35.5547 102.234 35.612 102.312 35.7266 102.391C35.8411 102.464 35.9896 102.531 36.1719 102.594C36.3542 102.651 36.5625 102.701 36.7969 102.742C37.0312 102.779 37.2656 102.797 37.5 102.797C37.8229 102.797 38.1172 102.776 38.3828 102.734C38.6484 102.688 38.8854 102.633 39.0938 102.57C39.3073 102.503 39.4922 102.43 39.6484 102.352C39.8047 102.273 39.9349 102.198 40.0391 102.125C40.1068 102.182 40.1641 102.268 40.2109 102.383C40.263 102.492 40.3073 102.615 40.3438 102.75C40.3802 102.885 40.4062 103.026 40.4219 103.172C40.4427 103.312 40.4531 103.443 40.4531 103.562C40.4531 103.682 40.4453 103.797 40.4297 103.906C40.4193 104.01 40.4036 104.102 40.3828 104.18C40.2161 104.32 40.0339 104.456 39.8359 104.586C39.638 104.711 39.4036 104.823 39.1328 104.922C38.862 105.016 38.5469 105.091 38.1875 105.148C37.8333 105.211 37.4141 105.242 36.9297 105.242ZM41.9219 100.062H42.4062C42.5417 100.062 42.6406 100.039 42.7031 99.9922C42.7656 99.9453 42.7969 99.8828 42.7969 99.8047C42.7969 99.7734 42.7917 99.7422 42.7812 99.7109H41.0312C40.974 99.5234 40.9297 99.3177 40.8984 99.0938C40.8724 98.8646 40.8594 98.6328 40.8594 98.3984C40.8594 98.2474 40.8672 98.0755 40.8828 97.8828C40.9036 97.6849 40.9297 97.5208 40.9609 97.3906C41.1797 97.2552 41.3958 97.1094 41.6094 96.9531C41.8281 96.7969 42.0208 96.6562 42.1875 96.5312C42.2344 96.4219 42.2891 96.2786 42.3516 96.1016C42.4141 95.9245 42.4766 95.7396 42.5391 95.5469C42.6016 95.3542 42.6615 95.1693 42.7188 94.9922C42.776 94.8099 42.8255 94.6589 42.8672 94.5391C43.0339 94.4974 43.2552 94.4609 43.5312 94.4297C43.8073 94.3984 44.0885 94.3828 44.375 94.3828C44.599 94.3828 44.8229 94.3958 45.0469 94.4219C45.276 94.4479 45.526 94.4896 45.7969 94.5469V96.4609H47.1484C47.2995 96.6901 47.4115 96.9479 47.4844 97.2344C47.5625 97.5156 47.6016 97.7969 47.6016 98.0781C47.6016 98.3438 47.5625 98.6276 47.4844 98.9297C47.4115 99.2266 47.2995 99.4844 47.1484 99.7031H46.0312V100.883C46.0312 101.242 46.1042 101.5 46.25 101.656C46.3958 101.807 46.6016 101.883 46.8672 101.883H47.2031C47.2448 102.039 47.2812 102.206 47.3125 102.383C47.349 102.56 47.3672 102.737 47.3672 102.914C47.3672 103.638 47.1406 104.19 46.6875 104.57C46.2344 104.951 45.5885 105.141 44.75 105.141C44.3281 105.141 43.9427 105.083 43.5938 104.969C43.25 104.854 42.9531 104.68 42.7031 104.445C42.4531 104.211 42.2604 103.919 42.125 103.57C41.9896 103.216 41.9219 102.799 41.9219 102.32V100.062ZM55.5469 101.516C55.4271 101.516 55.3411 101.547 55.2891 101.609C55.2422 101.667 55.2188 101.734 55.2188 101.812C55.2188 101.917 55.2552 101.99 55.3281 102.031C55.4062 102.073 55.4974 102.094 55.6016 102.094C55.7682 102.094 55.8958 102.052 55.9844 101.969C56.0729 101.885 56.1172 101.734 56.1172 101.516H55.5469ZM59.6016 101.133C59.6016 101.492 59.6406 101.789 59.7188 102.023C59.7969 102.258 59.9453 102.443 60.1641 102.578C60.1693 102.62 60.1719 102.672 60.1719 102.734C60.1719 102.792 60.1719 102.836 60.1719 102.867C60.1719 103.263 60.1094 103.604 59.9844 103.891C59.8594 104.177 59.6953 104.414 59.4922 104.602C59.2943 104.784 59.0677 104.919 58.8125 105.008C58.5573 105.096 58.2969 105.141 58.0312 105.141C57.8438 105.141 57.6589 105.117 57.4766 105.07C57.2995 105.029 57.1302 104.964 56.9688 104.875C56.8125 104.786 56.6693 104.674 56.5391 104.539C56.4141 104.398 56.3151 104.234 56.2422 104.047C56.1536 104.047 56.0859 104.07 56.0391 104.117C55.9974 104.164 55.9766 104.227 55.9766 104.305C55.9766 104.378 56 104.456 56.0469 104.539C56.0938 104.622 56.1615 104.708 56.25 104.797C56.0833 104.911 55.8594 104.997 55.5781 105.055C55.2969 105.112 55.0104 105.141 54.7188 105.141C54.2448 105.141 53.8125 105.076 53.4219 104.945C53.0365 104.815 52.7031 104.622 52.4219 104.367C52.1458 104.112 51.9297 103.802 51.7734 103.438C51.6224 103.068 51.5469 102.643 51.5469 102.164C51.5469 101.669 51.6276 101.242 51.7891 100.883C51.9557 100.518 52.1797 100.219 52.4609 99.9844C52.7422 99.7448 53.0677 99.5677 53.4375 99.4531C53.8125 99.3385 54.2083 99.2812 54.625 99.2812C54.8125 99.2812 54.9792 99.2891 55.125 99.3047C55.2708 99.3151 55.3958 99.3281 55.5 99.3438C55.6198 99.3646 55.7214 99.3854 55.8047 99.4062C55.8203 99.3542 55.8281 99.3099 55.8281 99.2734C55.8281 99.2057 55.7917 99.1484 55.7188 99.1016C55.651 99.0547 55.5599 99.0208 55.4453 99C55.3307 98.974 55.1979 98.9557 55.0469 98.9453C54.8958 98.9349 54.7422 98.9297 54.5859 98.9297C54.2318 98.9297 53.8776 98.9688 53.5234 99.0469C53.1693 99.125 52.8516 99.2448 52.5703 99.4062C52.4557 99.2135 52.362 98.9688 52.2891 98.6719C52.2214 98.375 52.1875 98.0729 52.1875 97.7656C52.1875 97.6198 52.1953 97.474 52.2109 97.3281C52.2318 97.1771 52.2708 97.0443 52.3281 96.9297C52.4635 96.8672 52.6354 96.7995 52.8438 96.7266C53.0573 96.6484 53.3021 96.5781 53.5781 96.5156C53.8594 96.4479 54.1667 96.3906 54.5 96.3438C54.8385 96.2969 55.2005 96.2734 55.5859 96.2734C56.2578 96.2734 56.8438 96.349 57.3438 96.5C57.849 96.651 58.2682 96.8698 58.6016 97.1562C58.9349 97.4375 59.1849 97.7865 59.3516 98.2031C59.5182 98.6146 59.6016 99.0807 59.6016 99.6016V101.133ZM68.2812 96.1016C68.0677 96.112 67.8568 96.1354 67.6484 96.1719C67.4401 96.2031 67.2526 96.2448 67.0859 96.2969C66.9245 96.3438 66.7917 96.3984 66.6875 96.4609C66.5833 96.5234 66.5312 96.5938 66.5312 96.6719C66.5312 96.7031 66.5417 96.7396 66.5625 96.7812C66.5833 96.8177 66.6146 96.849 66.6562 96.875C66.8698 96.7708 67.1276 96.6745 67.4297 96.5859C67.737 96.4974 68.0859 96.4531 68.4766 96.4531C69.0443 96.4531 69.5651 96.5547 70.0391 96.7578C70.5182 96.9609 70.9323 97.25 71.2812 97.625C71.6302 98 71.901 98.4505 72.0938 98.9766C72.2917 99.4974 72.3906 100.078 72.3906 100.719C72.3906 101.521 72.2708 102.208 72.0312 102.781C71.7969 103.349 71.4714 103.815 71.0547 104.18C70.6432 104.544 70.1536 104.812 69.5859 104.984C69.0234 105.156 68.4141 105.242 67.7578 105.242C67.4922 105.242 67.2188 105.229 66.9375 105.203C66.6615 105.177 66.388 105.133 66.1172 105.07C65.8516 105.013 65.599 104.935 65.3594 104.836C65.125 104.737 64.9193 104.615 64.7422 104.469C64.5651 104.323 64.4245 104.154 64.3203 103.961C64.2161 103.763 64.1641 103.536 64.1641 103.281V94.3672C64.4036 94.2266 64.6979 94.1094 65.0469 94.0156C65.401 93.9167 65.763 93.8672 66.1328 93.8672C66.4036 93.8672 66.6667 93.8958 66.9219 93.9531C67.1823 94.0104 67.4115 94.1016 67.6094 94.2266C67.8125 94.3464 67.974 94.5052 68.0938 94.7031C68.2188 94.8958 68.2812 95.1302 68.2812 95.4062V96.1016ZM68.0391 100.562C68.0391 100.734 68.0365 100.883 68.0312 101.008C68.026 101.128 68.0208 101.234 68.0156 101.328C68.0104 101.417 68.0026 101.497 67.9922 101.57C67.9818 101.643 67.974 101.721 67.9688 101.805C67.9896 101.826 68.013 101.844 68.0391 101.859C68.0703 101.875 68.1094 101.883 68.1562 101.883C68.2083 101.883 68.2526 101.867 68.2891 101.836C68.3307 101.805 68.3646 101.737 68.3906 101.633C68.4167 101.529 68.4323 101.396 68.4375 101.234C68.4479 101.073 68.4531 100.875 68.4531 100.641V99.8438C68.4531 99.7083 68.4349 99.612 68.3984 99.5547C68.3672 99.4922 68.3021 99.4609 68.2031 99.4609C68.1302 99.4609 68.0755 99.4792 68.0391 99.5156V100.562ZM76.6406 101.516C76.5208 101.516 76.4349 101.547 76.3828 101.609C76.3359 101.667 76.3125 101.734 76.3125 101.812C76.3125 101.917 76.349 101.99 76.4219 102.031C76.5 102.073 76.5911 102.094 76.6953 102.094C76.862 102.094 76.9896 102.052 77.0781 101.969C77.1667 101.885 77.2109 101.734 77.2109 101.516H76.6406ZM80.6953 101.133C80.6953 101.492 80.7344 101.789 80.8125 102.023C80.8906 102.258 81.0391 102.443 81.2578 102.578C81.263 102.62 81.2656 102.672 81.2656 102.734C81.2656 102.792 81.2656 102.836 81.2656 102.867C81.2656 103.263 81.2031 103.604 81.0781 103.891C80.9531 104.177 80.7891 104.414 80.5859 104.602C80.388 104.784 80.1615 104.919 79.9062 105.008C79.651 105.096 79.3906 105.141 79.125 105.141C78.9375 105.141 78.7526 105.117 78.5703 105.07C78.3932 105.029 78.224 104.964 78.0625 104.875C77.9062 104.786 77.763 104.674 77.6328 104.539C77.5078 104.398 77.4089 104.234 77.3359 104.047C77.2474 104.047 77.1797 104.07 77.1328 104.117C77.0911 104.164 77.0703 104.227 77.0703 104.305C77.0703 104.378 77.0938 104.456 77.1406 104.539C77.1875 104.622 77.2552 104.708 77.3438 104.797C77.1771 104.911 76.9531 104.997 76.6719 105.055C76.3906 105.112 76.1042 105.141 75.8125 105.141C75.3385 105.141 74.9062 105.076 74.5156 104.945C74.1302 104.815 73.7969 104.622 73.5156 104.367C73.2396 104.112 73.0234 103.802 72.8672 103.438C72.7161 103.068 72.6406 102.643 72.6406 102.164C72.6406 101.669 72.7214 101.242 72.8828 100.883C73.0495 100.518 73.2734 100.219 73.5547 99.9844C73.8359 99.7448 74.1615 99.5677 74.5312 99.4531C74.9062 99.3385 75.3021 99.2812 75.7188 99.2812C75.9062 99.2812 76.0729 99.2891 76.2188 99.3047C76.3646 99.3151 76.4896 99.3281 76.5938 99.3438C76.7135 99.3646 76.8151 99.3854 76.8984 99.4062C76.9141 99.3542 76.9219 99.3099 76.9219 99.2734C76.9219 99.2057 76.8854 99.1484 76.8125 99.1016C76.7448 99.0547 76.6536 99.0208 76.5391 99C76.4245 98.974 76.2917 98.9557 76.1406 98.9453C75.9896 98.9349 75.8359 98.9297 75.6797 98.9297C75.3255 98.9297 74.9714 98.9688 74.6172 99.0469C74.263 99.125 73.9453 99.2448 73.6641 99.4062C73.5495 99.2135 73.4557 98.9688 73.3828 98.6719C73.3151 98.375 73.2812 98.0729 73.2812 97.7656C73.2812 97.6198 73.2891 97.474 73.3047 97.3281C73.3255 97.1771 73.3646 97.0443 73.4219 96.9297C73.5573 96.8672 73.7292 96.7995 73.9375 96.7266C74.151 96.6484 74.3958 96.5781 74.6719 96.5156C74.9531 96.4479 75.2604 96.3906 75.5938 96.3438C75.9323 96.2969 76.2943 96.2734 76.6797 96.2734C77.3516 96.2734 77.9375 96.349 78.4375 96.5C78.9427 96.651 79.362 96.8698 79.6953 97.1562C80.0286 97.4375 80.2786 97.7865 80.4453 98.2031C80.612 98.6146 80.6953 99.0807 80.6953 99.6016V101.133ZM82.8984 96.4609C83.2214 96.4609 83.4896 96.513 83.7031 96.6172C83.9219 96.7214 84.0938 96.8672 84.2188 97.0547C84.151 97.1276 84.0859 97.2161 84.0234 97.3203C83.9661 97.4245 83.9141 97.5286 83.8672 97.6328C83.8255 97.7318 83.7917 97.8281 83.7656 97.9219C83.7396 98.0104 83.7266 98.0807 83.7266 98.1328C83.7266 98.1953 83.75 98.2526 83.7969 98.3047C83.8438 98.3516 83.9167 98.375 84.0156 98.375C84.1146 97.9896 84.2526 97.6667 84.4297 97.4062C84.612 97.1458 84.8177 96.9375 85.0469 96.7812C85.2812 96.625 85.5312 96.5156 85.7969 96.4531C86.0677 96.3854 86.3411 96.3516 86.6172 96.3516C86.8411 96.3516 87.0469 96.3672 87.2344 96.3984C87.4219 96.4245 87.5911 96.4609 87.7422 96.5078C87.8932 96.5547 88.026 96.6094 88.1406 96.6719C88.2552 96.7292 88.3516 96.7865 88.4297 96.8438C88.513 97.0625 88.5729 97.2943 88.6094 97.5391C88.6458 97.7839 88.6641 98.0234 88.6641 98.2578C88.6641 98.6797 88.625 99.0312 88.5469 99.3125C88.474 99.5938 88.3932 99.8255 88.3047 100.008C88.2214 100.049 88.1172 100.091 87.9922 100.133C87.8672 100.174 87.7292 100.211 87.5781 100.242C87.4323 100.273 87.276 100.299 87.1094 100.32C86.9427 100.336 86.7786 100.344 86.6172 100.344C86.4453 100.344 86.2917 100.339 86.1562 100.328C86.026 100.318 85.9062 100.305 85.7969 100.289C85.6875 100.268 85.5859 100.247 85.4922 100.227C85.4036 100.201 85.3125 100.177 85.2188 100.156C85.1771 100.198 85.1562 100.258 85.1562 100.336C85.1562 100.409 85.2031 100.466 85.2969 100.508C85.3958 100.549 85.5703 100.594 85.8203 100.641V104.562C85.6432 104.677 85.4635 104.771 85.2812 104.844C85.099 104.911 84.9193 104.964 84.7422 105C84.5703 105.042 84.4036 105.068 84.2422 105.078C84.0859 105.094 83.9401 105.102 83.8047 105.102C83.513 105.102 83.2396 105.073 82.9844 105.016C82.7292 104.964 82.5052 104.883 82.3125 104.773C82.125 104.659 81.9766 104.516 81.8672 104.344C81.7578 104.172 81.7031 103.966 81.7031 103.727V99.7031C81.5469 99.4844 81.4297 99.237 81.3516 98.9609C81.2786 98.6849 81.2422 98.3958 81.2422 98.0938C81.2422 97.8438 81.2786 97.5677 81.3516 97.2656C81.4297 96.9635 81.5469 96.6953 81.7031 96.4609H82.8984ZM90.6328 96.4609C90.9557 96.4609 91.224 96.513 91.4375 96.6172C91.6562 96.7214 91.8281 96.8672 91.9531 97.0547C91.8854 97.1276 91.8203 97.2161 91.7578 97.3203C91.7005 97.4245 91.6484 97.5286 91.6016 97.6328C91.5599 97.7318 91.526 97.8281 91.5 97.9219C91.474 98.0104 91.4609 98.0807 91.4609 98.1328C91.4609 98.1953 91.4844 98.2526 91.5312 98.3047C91.5781 98.3516 91.651 98.375 91.75 98.375C91.849 97.9896 91.987 97.6667 92.1641 97.4062C92.3464 97.1458 92.5521 96.9375 92.7812 96.7812C93.0156 96.625 93.2656 96.5156 93.5312 96.4531C93.8021 96.3854 94.0755 96.3516 94.3516 96.3516C94.5755 96.3516 94.7812 96.3672 94.9688 96.3984C95.1562 96.4245 95.3255 96.4609 95.4766 96.5078C95.6276 96.5547 95.7604 96.6094 95.875 96.6719C95.9896 96.7292 96.0859 96.7865 96.1641 96.8438C96.2474 97.0625 96.3073 97.2943 96.3438 97.5391C96.3802 97.7839 96.3984 98.0234 96.3984 98.2578C96.3984 98.6797 96.3594 99.0312 96.2812 99.3125C96.2083 99.5938 96.1276 99.8255 96.0391 100.008C95.9557 100.049 95.8516 100.091 95.7266 100.133C95.6016 100.174 95.4635 100.211 95.3125 100.242C95.1667 100.273 95.0104 100.299 94.8438 100.32C94.6771 100.336 94.513 100.344 94.3516 100.344C94.1797 100.344 94.026 100.339 93.8906 100.328C93.7604 100.318 93.6406 100.305 93.5312 100.289C93.4219 100.268 93.3203 100.247 93.2266 100.227C93.138 100.201 93.0469 100.177 92.9531 100.156C92.9115 100.198 92.8906 100.258 92.8906 100.336C92.8906 100.409 92.9375 100.466 93.0312 100.508C93.1302 100.549 93.3047 100.594 93.5547 100.641V104.562C93.3776 104.677 93.1979 104.771 93.0156 104.844C92.8333 104.911 92.6536 104.964 92.4766 105C92.3047 105.042 92.138 105.068 91.9766 105.078C91.8203 105.094 91.6745 105.102 91.5391 105.102C91.2474 105.102 90.974 105.073 90.7188 105.016C90.4635 104.964 90.2396 104.883 90.0469 104.773C89.8594 104.659 89.7109 104.516 89.6016 104.344C89.4922 104.172 89.4375 103.966 89.4375 103.727V99.7031C89.2812 99.4844 89.1641 99.237 89.0859 98.9609C89.013 98.6849 88.9766 98.3958 88.9766 98.0938C88.9766 97.8438 89.013 97.5677 89.0859 97.2656C89.1641 96.9635 89.2812 96.6953 89.4375 96.4609H90.6328ZM96.7891 97.4844C96.8932 97.4167 96.9974 97.362 97.1016 97.3203C97.2057 97.2786 97.3177 97.2266 97.4375 97.1641C97.3385 97.112 97.237 97.0391 97.1328 96.9453C97.0286 96.8516 96.9323 96.7396 96.8438 96.6094C96.7604 96.474 96.6901 96.3203 96.6328 96.1484C96.5807 95.9766 96.5547 95.7839 96.5547 95.5703C96.5547 95.237 96.612 94.9349 96.7266 94.6641C96.8464 94.388 97.0078 94.1536 97.2109 93.9609C97.4141 93.763 97.651 93.6094 97.9219 93.5C98.1927 93.3906 98.4844 93.3359 98.7969 93.3359C99.1146 93.3359 99.4062 93.3932 99.6719 93.5078C99.9427 93.6224 100.177 93.7786 100.375 93.9766C100.573 94.1745 100.727 94.4115 100.836 94.6875C100.951 94.9583 101.008 95.2526 101.008 95.5703C101.008 95.8411 100.961 96.0938 100.867 96.3281C100.779 96.5573 100.659 96.763 100.508 96.9453C100.357 97.1276 100.18 97.2812 99.9766 97.4062C99.7734 97.526 99.5625 97.6094 99.3438 97.6562C99.3438 97.7344 99.3594 97.8047 99.3906 97.8672C99.4271 97.9245 99.487 97.9531 99.5703 97.9531C99.8307 97.9531 100.102 97.849 100.383 97.6406C100.398 97.651 100.424 97.6693 100.461 97.6953C100.497 97.7214 100.536 97.7526 100.578 97.7891C100.62 97.8255 100.659 97.862 100.695 97.8984C100.732 97.9297 100.755 97.9531 100.766 97.9688V101.062C100.766 101.422 100.805 101.732 100.883 101.992C100.961 102.247 101.109 102.443 101.328 102.578C101.333 102.62 101.336 102.672 101.336 102.734C101.336 102.792 101.336 102.836 101.336 102.867C101.336 103.263 101.281 103.604 101.172 103.891C101.062 104.177 100.909 104.414 100.711 104.602C100.513 104.784 100.276 104.919 100 105.008C99.7292 105.096 99.4323 105.141 99.1094 105.141C98.8594 105.141 98.5964 105.099 98.3203 105.016C98.0495 104.932 97.7995 104.792 97.5703 104.594C97.3464 104.396 97.1589 104.133 97.0078 103.805C96.862 103.471 96.7891 103.057 96.7891 102.562V97.4844ZM106.031 99.9531C106.161 99.9531 106.258 99.9271 106.32 99.875C106.388 99.8177 106.422 99.7448 106.422 99.6562C106.422 99.5521 106.383 99.4792 106.305 99.4375C106.232 99.3958 106.143 99.375 106.039 99.375C105.893 99.375 105.776 99.4167 105.688 99.5C105.604 99.5781 105.552 99.6849 105.531 99.8203C105.583 99.8516 105.651 99.8828 105.734 99.9141C105.818 99.9401 105.917 99.9531 106.031 99.9531ZM106.133 105.242C105.419 105.242 104.773 105.141 104.195 104.938C103.617 104.729 103.122 104.432 102.711 104.047C102.305 103.656 101.99 103.182 101.766 102.625C101.547 102.068 101.438 101.44 101.438 100.742C101.438 100.008 101.555 99.3594 101.789 98.7969C102.029 98.2344 102.349 97.763 102.75 97.3828C103.156 97.0026 103.628 96.7161 104.164 96.5234C104.701 96.3307 105.266 96.2344 105.859 96.2344C106.49 96.2344 107.057 96.3281 107.562 96.5156C108.068 96.6979 108.497 96.9505 108.852 97.2734C109.211 97.5964 109.487 97.974 109.68 98.4062C109.872 98.8385 109.969 99.2995 109.969 99.7891C109.969 100.253 109.885 100.651 109.719 100.984C109.557 101.318 109.331 101.594 109.039 101.812C108.747 102.026 108.401 102.185 108 102.289C107.599 102.393 107.164 102.445 106.695 102.445C106.341 102.445 105.997 102.404 105.664 102.32C105.336 102.237 105.055 102.125 104.82 101.984C104.794 102.005 104.776 102.034 104.766 102.07C104.76 102.102 104.758 102.13 104.758 102.156C104.758 102.234 104.815 102.312 104.93 102.391C105.044 102.464 105.193 102.531 105.375 102.594C105.557 102.651 105.766 102.701 106 102.742C106.234 102.779 106.469 102.797 106.703 102.797C107.026 102.797 107.32 102.776 107.586 102.734C107.852 102.688 108.089 102.633 108.297 102.57C108.51 102.503 108.695 102.43 108.852 102.352C109.008 102.273 109.138 102.198 109.242 102.125C109.31 102.182 109.367 102.268 109.414 102.383C109.466 102.492 109.51 102.615 109.547 102.75C109.583 102.885 109.609 103.026 109.625 103.172C109.646 103.312 109.656 103.443 109.656 103.562C109.656 103.682 109.648 103.797 109.633 103.906C109.622 104.01 109.607 104.102 109.586 104.18C109.419 104.32 109.237 104.456 109.039 104.586C108.841 104.711 108.607 104.823 108.336 104.922C108.065 105.016 107.75 105.091 107.391 105.148C107.036 105.211 106.617 105.242 106.133 105.242ZM111.758 96.4609C112.081 96.4609 112.349 96.513 112.562 96.6172C112.781 96.7214 112.953 96.8672 113.078 97.0547C113.01 97.1276 112.945 97.2161 112.883 97.3203C112.826 97.4245 112.773 97.5286 112.727 97.6328C112.685 97.7318 112.651 97.8281 112.625 97.9219C112.599 98.0104 112.586 98.0807 112.586 98.1328C112.586 98.1953 112.609 98.2526 112.656 98.3047C112.703 98.3516 112.776 98.375 112.875 98.375C112.974 97.9896 113.112 97.6667 113.289 97.4062C113.471 97.1458 113.677 96.9375 113.906 96.7812C114.141 96.625 114.391 96.5156 114.656 96.4531C114.927 96.3854 115.201 96.3516 115.477 96.3516C115.701 96.3516 115.906 96.3672 116.094 96.3984C116.281 96.4245 116.451 96.4609 116.602 96.5078C116.753 96.5547 116.885 96.6094 117 96.6719C117.115 96.7292 117.211 96.7865 117.289 96.8438C117.372 97.0625 117.432 97.2943 117.469 97.5391C117.505 97.7839 117.523 98.0234 117.523 98.2578C117.523 98.6797 117.484 99.0312 117.406 99.3125C117.333 99.5938 117.253 99.8255 117.164 100.008C117.081 100.049 116.977 100.091 116.852 100.133C116.727 100.174 116.589 100.211 116.438 100.242C116.292 100.273 116.135 100.299 115.969 100.32C115.802 100.336 115.638 100.344 115.477 100.344C115.305 100.344 115.151 100.339 115.016 100.328C114.885 100.318 114.766 100.305 114.656 100.289C114.547 100.268 114.445 100.247 114.352 100.227C114.263 100.201 114.172 100.177 114.078 100.156C114.036 100.198 114.016 100.258 114.016 100.336C114.016 100.409 114.062 100.466 114.156 100.508C114.255 100.549 114.43 100.594 114.68 100.641V104.562C114.503 104.677 114.323 104.771 114.141 104.844C113.958 104.911 113.779 104.964 113.602 105C113.43 105.042 113.263 105.068 113.102 105.078C112.945 105.094 112.799 105.102 112.664 105.102C112.372 105.102 112.099 105.073 111.844 105.016C111.589 104.964 111.365 104.883 111.172 104.773C110.984 104.659 110.836 104.516 110.727 104.344C110.617 104.172 110.562 103.966 110.562 103.727V99.7031C110.406 99.4844 110.289 99.237 110.211 98.9609C110.138 98.6849 110.102 98.3958 110.102 98.0938C110.102 97.8438 110.138 97.5677 110.211 97.2656C110.289 96.9635 110.406 96.6953 110.562 96.4609H111.758Z" fill="#22FBFD"/>
<path d="M71.3121 19.0006C70.1931 19.0101 69.0909 19.105 68.0161 19.2944C62.0899 20.3394 56.6318 22.6244 52.5831 25.9227C48.5343 29.2211 45.8903 33.4836 45.4136 38.6604L45.4131 38.6655L45.4126 38.6705C44.3368 49.3498 50.4282 58.0686 53.7646 61.7838C54.4278 62.5227 54.6639 63.5119 54.5963 64.4397C54.5288 65.3675 54.2093 66.2849 53.7563 67.2199C52.8506 69.0898 51.3752 71.0468 49.8059 72.8796C48.0291 74.9552 46.3208 76.6611 45 77.9245C45.917 77.7699 46.8796 77.3682 47.8861 76.7319C49.7524 75.5524 51.6486 73.616 53.2454 71.4743C54.8422 69.3324 56.1489 66.9828 56.9121 65.0342C57.2938 64.0598 57.5375 63.1832 57.6269 62.5237C57.716 61.8645 57.6043 61.4556 57.5818 61.4178C55.6289 58.1421 53.6025 54.7943 52.402 51.3461C51.2015 47.898 50.8488 44.2722 52.3927 40.735C55.6038 33.3778 62.3253 29.9029 69.0411 29.3275C75.7388 28.7536 82.5311 30.9056 86.4244 35.0195L89.3897 37.8806L98.2063 32.6011C95.6169 29.2511 91.142 25.5571 85.9542 22.8929C81.6835 20.6999 76.9532 19.2038 72.4365 19.0192C72.0601 19.0039 71.6852 18.9975 71.3121 19.0009V19.0006ZM86.4244 35.0195L86.4171 35.0121L86.4565 35.0519C86.446 35.0408 86.4349 35.0303 86.4247 35.0193L86.4244 35.0195ZM70.1791 31.5522C69.8649 31.5652 69.5508 31.5834 69.237 31.6104C68.7835 31.6492 68.3319 31.7033 67.8825 31.7702L69.1082 37.5089C69.8415 37.3004 70.5922 37.1495 71.3547 37.0551L70.1792 31.5521L70.1791 31.5522ZM75.7616 32.0179C75.1421 33.6532 74.8284 35.3172 74.8732 36.988C75.6414 37.0491 76.4119 37.158 77.1801 37.3136C77.0696 35.7617 77.3463 34.2034 77.99 32.6057C77.2694 32.374 76.524 32.1775 75.7616 32.0179ZM62.1813 33.5189C61.4032 33.9044 60.6536 34.3515 59.9392 34.8597C62.1734 35.9879 63.7202 37.7576 64.3587 39.9003C64.9871 39.4115 65.6502 38.9859 66.3401 38.6192C65.5607 36.5496 64.1023 34.789 62.1813 33.5189ZM73.4018 39.2218C73.2546 39.2215 73.108 39.2236 72.9617 39.2278C72.6211 39.2374 72.2834 39.2586 71.9493 39.2917C66.6033 39.8233 62.1071 43.1438 60.813 50.7584C60.5332 52.4057 61.3595 56.21 62.372 59.3721C63.3844 62.5339 64.4897 65.1668 64.4897 65.1668L64.5538 65.3193L64.572 65.4842C64.8216 67.7375 63.4123 69.9358 61.8716 72.1373C60.8485 73.5996 59.7799 74.9513 58.82 76.1755C61.8754 76.0037 64.6715 74.6497 67.3722 72.2357C67.3564 72.1721 67.3506 72.1453 67.3324 72.0706C67.2221 71.613 67.0835 70.9634 67.1176 70.2017C67.1744 68.9308 67.8399 67.4063 69.5133 66.1446C66.3844 61.6863 65.8343 56.1182 66.4502 51.5007L66.563 50.6541L67.4066 50.5204C74.8815 49.3377 79.7868 46.8527 85.1458 43.5703C81.6364 40.7848 77.3547 39.2271 73.4015 39.2217L73.4018 39.2218ZM88.7039 44.0391C82.5391 47.9242 77.0475 51.1264 68.6457 52.6134C68.2315 56.8665 68.9546 61.7592 71.8572 65.4458C73.4621 65.5235 74.8189 66.3341 75.6642 67.5062C76.5231 68.6969 76.9304 70.2003 77.0429 71.7873C80.0077 74.515 85.0596 76.7554 89.4891 79C89.0856 73.9784 89.4515 69.2813 87.6383 64.4728L79.638 61.2519L79.6301 61.2485C77.8079 60.4823 76.6597 59.4926 76.2549 58.1892C75.8501 56.8861 76.1436 55.6474 76.4061 54.2345L76.6862 52.7257L78.0535 53.4228C81.0334 54.9429 84.5964 56.0352 87.926 55.9773L88.764 55.9625L89.0317 56.7566C90.3803 60.7587 90.6755 63.9638 91.0371 67.2218L92.0284 67.6181C92.5537 63.8778 92.2719 58.8738 91.5368 54.3239C90.8413 50.0187 89.6628 46.045 88.7039 44.0389V44.0391ZM67.4525 72.5708C67.4513 72.6273 67.4645 72.6287 67.4538 72.5759C67.4535 72.5749 67.4525 72.5717 67.4525 72.5708Z" fill="#22FBFD"/>
</svg>
