<svg width="15" height="15" viewBox="0 0 15 15" fill="none" xmlns="http://www.w3.org/2000/svg">
<path d="M7.65273 0.00313317C6.65823 -0.0257971 5.66807 0.145864 4.74086 0.507952C3.81364 0.87004 2.96824 1.41519 2.25469 2.11114C1.54114 2.80708 0.97396 3.63966 0.586729 4.55958C0.199498 5.4795 8.99001e-05 6.46806 0.000310291 7.46673C-0.0086629 8.45276 0.177066 9.4308 0.54677 10.3444C0.916474 11.2579 1.46283 12.0889 2.15428 12.7894C2.84573 13.4898 3.66857 14.0458 4.57529 14.4252C5.482 14.8046 6.45462 15 7.43698 15C8.41933 15 9.39195 14.8046 10.2987 14.4252C11.2054 14.0458 12.0282 13.4898 12.7197 12.7894C13.4111 12.0889 13.9575 11.2579 14.3272 10.3444C14.6969 9.4308 14.8826 8.45276 14.8736 7.46673C14.8741 5.52413 14.1201 3.65787 12.7718 2.26428C11.4235 0.870696 9.5872 0.05956 7.65273 0.00313317ZM7.47335 0.358405L7.81996 0.559127V0.960609L7.47332 1.16133L7.12791 0.960648V0.559127L7.47335 0.358405ZM7.61026 1.4971C9.15754 1.54235 10.6263 2.19114 11.7048 3.30573C12.7833 4.42032 13.3866 5.91294 13.3866 7.46673C13.3809 9.04688 12.7516 10.5604 11.6364 11.6757C10.5213 12.791 9.01123 13.4173 7.43701 13.4173C5.8628 13.4173 4.35275 12.791 3.23761 11.6757C2.12247 10.5604 1.49313 9.04688 1.48745 7.46673C1.48744 6.66782 1.64712 5.87703 1.95704 5.14117C2.26696 4.40531 2.72081 3.73935 3.29174 3.18272C3.86266 2.62609 4.53904 2.1901 5.28084 1.90056C6.02264 1.61103 6.81477 1.47383 7.61034 1.4971H7.61026ZM7.16309 2.27686C6.26465 2.32338 5.39375 2.60389 4.6361 3.0908V11.8354C5.39305 12.3249 6.26399 12.6079 7.16309 12.6565V2.27694V2.27686ZM7.84905 2.28908V12.6492C8.72852 12.5783 9.57538 12.2831 10.3094 11.7916V3.14554C9.57526 2.65448 8.72841 2.35969 7.84905 2.28908ZM3.95134 3.62609C3.4182 4.11272 2.99204 4.70563 2.70008 5.36694C2.40812 6.02824 2.25679 6.7434 2.25574 7.46673C2.25612 8.19088 2.40713 8.90697 2.69911 9.56915C2.99109 10.2313 3.4176 10.825 3.95134 11.3122V3.62612V3.62609ZM1.59643 3.68935L1.94187 3.89003V4.29023L1.59647 4.49099L1.24986 4.29026V3.89007L1.59643 3.68935ZM13.2508 3.68935L13.5975 3.89003V4.29023L13.2508 4.49099L12.9054 4.29026V3.89007L13.2508 3.68931L13.2508 3.68935ZM10.9953 3.69297V11.2441C11.5075 10.7583 11.9155 10.1728 12.1946 9.52329C12.4736 8.87381 12.6177 8.17403 12.6182 7.46673C12.6173 6.76004 12.4729 6.06094 12.1939 5.41211C11.9149 4.76328 11.507 4.17833 10.9953 3.69297ZM13.2375 10.4327L13.5841 10.6334V11.0348L13.2375 11.2356L12.8921 11.0348V10.6334L13.2375 10.4327ZM1.60981 10.4606L1.95645 10.6613V11.0628L1.60981 11.2635L1.26317 11.0629V10.6614L1.60981 10.4607V10.4606ZM7.42363 13.777L7.77028 13.9777V14.3792L7.42363 14.5799L7.07823 14.3791V13.9777L7.42363 13.777V13.777Z" fill="#22FBFD"/>
</svg>
